{
.appVersion = "3436";
.formatVersion = 3;
DisplayStrings = (
"ROASTED PEANUTS IN FISH SAUCE WITH ANCHOVIES
Roasted peanuts in fish sauce with anchovies",
"ABCDEFGHIJKLMNOPQRSTUVWXYZabcdefghijklmnopqrstuvwxyz/y.ss02 0123456789 .,:;…!¡?¿·•*#///backslash -–—_(){}[]‚„“”‘’«»‹›\"'/quotedblleft.001 ฿¢$€£₩¥+−×÷=≠↑↗→↘↓↙←↖↔↕/AAngle/Currency",
adp,
y,
gay,
s,
"//",
"#",
"-",
f,
"/y.ss02",
"",
W,
"Shower Screen On Top of the Cupboard!",
afeSenders,
afeSenders,
d,
$,
S,
"fight forjustice",
j,
"/quotedblleft.001",
",’",
"VA/AAngle ValueBC",
"3/colon.ss04 30",
"V/AAngle ARIABLE",
"VA
80’s

nnoonnonnononn
HHOHOHHOHOHOO
hamburgerfontsiv

First
FIRST

FA",
"1",
",‘“",
"“",
"!",
"?",
",",
".",
"‘'",
"",
"–=≠",
"=",
"=",
"+",
"−",
"×",
"÷",
"%",
"sam.mularczyk@gmail.com",
"‚",
"„",
"*",
"→↑",
"→",
"↓",
"→←",
"↖",
"↘",
"↙",
"↗",
"↔",
"↔↕",
"¢",
"↑",
"฿@&¢$€£₩¥+−×÷=≠~^%",
R,
F,
H,
T,
"",
"",
"GEOMETRIC TTHRIC",
"/backslash",
lift,
f,
ff,
f,
"",
fff,
f,
"f/f_i.liga",
"hello‹",
"‹",
"›",
"«",
"»",
"{",
"}",
"/a.ss01 dba",
h,
n,
db,
r,
a,
"/a.ss01/a.ss01 db",
"L£",
"€",
"£",
"sam@mula",
"Conditions apply^",
">",
"<",
"~",
"\"",
"̇",
"̦",
"̇Ė",
"Ė",
"̇Ż",
"Ģ",
"Ķ",
"Ļ",
"Ņ",
"Ŗ",
"ė",
"ģ",
"ķ",
"ż",
"ļ",
"ņ",
"ŗ",
"ḃ",
"ḋ",
"ḟ",
"ġ",
"ṅ",
"/x-heightdotaccent",
"ẋ",
"ẏ",
"ṡ",
"ṙ",
"ȧ",
"ċ",
"ȯ",
"Ẇ",
"Ẋ",
"Ẏ",
"Ż",
"Ṙ",
"Ṡ",
"˙",
"ì",
"`",
"ỳ",
"̀Ǹ",
"̀Ẁ",
"Ỳ",
"Ṫ",
"Ȑ",
"Ṗ",
"Ḟ",
"/idotaccent.sc",
"ȯ/idotaccent.sc"
);
axes = (
{
name = Weight;
tag = wght;
}
);
date = "2026-01-11 06:13:19 +0000";
familyName = "Television Sans";
featurePrefixes = (
{
automatic = 1;
code = "languagesystem DFLT dflt;
";
name = Languagesystems;
}
);
features = (
{
automatic = 1;
code = "feature ss01;
feature ss02;
feature ss03;
feature ss04;
";
tag = aalt;
},
{
automatic = 1;
code = "lookupflag IgnoreMarks;
sub f f i by f_f_i.liga;
sub f f by f_f.liga;
sub f i by f_i.liga;
sub f j by f_j.liga;
sub f t by f_t.liga;
";
tag = liga;
},
{
automatic = 1;
code = "sub a by a.ss01;
";
labels = (
{
language = dflt;

glyphs = (
{
glyphname = A;
kernRight = AV;
lastChange = "2026-02-07 11:19:22 +0000";
layers = (
{
layerId = m01;
shapes = (
{
closed = 1;
nodes = (
(165,115,l),
(511,115,l),
(511,269,l),
(165,269,l)
);
},
{
ref = AAngle;
}
);
width = 677;
},
{
layerId = m002;
shapes = (
{
closed = 1;
nodes = (
(89,136,l),
(435,136,l),
(435,196,l),
(89,196,l)
);
},
{
ref = AAngle;
}
);
width = 550;
}
);
unicode = 65;
},
{
glyphname = B;
kernLeft = "0";
kernRight = "0";
lastChange = "2026-02-08 07:56:59 +0000";
layers = (
{
layerId = m01;
shapes = (
{
closed = 1;
nodes = (
(353,303,l),
(463,303,o),
(552,392,o),
(552,502,cs),
(552,612,o),
(463,701,o),
(353,701,c),
(80,700,l),
(80,303,l)
);
},
{
closed = 1;
nodes = (
(249,557,l),
(298,557,ls),
(345,557,o),
(383,524,o),
(383,484,c),
(383,443,o),
(345,409,o),
(298,409,c),
(249,409,l)
);
},
{
closed = 1;
nodes = (
(80,1,l),
(353,0,l),
(474,0,o),
(580,97,o),
(572,219,cs),
(565,327,o),
(474,398,o),
(353,398,c),
(80,398,l)
);
},
{
closed = 1;
nodes = (
(249,292,l),
(319,292,ls),
(365,292,o),
(403,259,o),
(403,219,c),
(403,178,o),
(365,144,o),
(319,144,cs),
(249,144,l)
);
}
);
width = 611;
},
{
layerId = m002;
shapes = (
{
closed = 1;
nodes = (
(255,343,l),
(358,343,o),
(434,421,o),
(434,525,cs),
(434,629,o),
(344,701,o),
(215,701,c),
(93,700,l),
(93,343,l)
);
},
{
closed = 1;
nodes = (
(153,641,l),
(213,641,ls),
(302,641,o),
(375,583,o),
(374,515,cs),
(373,450,o),
(296,390,o),
(213,390,c),
(153,390,l)
);
},
{
closed = 1;
nodes = (
(93,0,l),
(255,0,l),
(381,0,o),
(474,77,o),
(474,182,cs),
(474,287,o),
(373,378,o),
(255,378,c),
(93,378,l)
);
},
{
closed = 1;
nodes = (
(153,330,l),
(234,330,ls),
(336,330,o),
(414,266,o),
(414,182,c),
(414,108,o),
(352,61,o),
(255,61,cs),
(153,61,l)
);
}
);
width = 515;
}
);
unicode = 66;
},
{
glyphname = C;
kernLeft = "0";
kernRight = "0";
lastChange = "2026-02-08 07:56:59 +0000";
layers = (
{
layerId = m01;
shapes = (
{
closed = 1;
nodes = (
(389,-12,o),
(454,-5,o),
(491,7,c),
(491,191,l),
(462,173,o),
(427,162,o),
(390,162,cs),
(286,162,o),
(202,246,o),
(202,350,cs),
(202,454,o),
(286,538,o),
(390,538,cs),
(427,538,o),
(461,527,o),
(491,509,c),
(491,692,l),
(445,707,o),
(380,712,o),
(351,712,cs),
(185,712,o),
(28,550,o),
(28,350,cs),
(28,162,o),
(148,-12,o),
(348,-12,cs)
);
}
);
width = 538;
},
{
layerId = m002;
shapes = (
{
closed = 1;
nodes = (
(413,-12,o),
(461,-8,o),
(507,7,c),
(514,67,l),
(466,51,o),
(416,48,o),
(366,48,cs),
(200,48,o),
(104,184,o),
(104,350,cs),
(104,510,o),
(207,634,o),
(366,652,cs),
(417,658,o),
(469,650,o),
(514,625,c),
(507,692,l),
(462,707,o),
(415,713,o),
(367,712,cs),
(168,706,o),
(44,549,o),
(44,350,cs),
(44,149,o),
(163,-12,o),
(364,-12,cs)
);
}
);
width = 537;
}
);
unicode = 67;
},
{
glyphname = D;
kernLeft = "0";
kernRight = "0";
lastChange = "2026-02-08 07:56:59 +0000";
layers = (
{
layerId = m01;
shapes = (
{
closed = 1;
nodes = (
(454,-1,o),
(627,156,o),
(627,350,cs),
(627,543,o),
(454,700,o),
(241,700,c),
(80,700,l),
(80,350,l),
(80,0,l),
(241,-1,l)
);
},
{
closed = 1;
nodes = (
(245,526,l),
(351,526,o),
(453,447,o),
(453,350,c),
(453,252,o),
(351,173,o),
(245,173,c)
);
}
);
width = 651;
},
{
layerId = m002;
shapes = (
{
closed = 1;
nodes = (
(429,-1,o),
(577,156,o),
(577,350,cs),
(577,543,o),
(429,700,o),
(169,700,c),
(93,700,l),
(93,350,l),
(93,0,l),
(169,-1,l)
);
},
{
closed = 1;
nodes = (
(153,640,l),
(347,640,o),
(517,553,o),
(517,351,c),
(517,146,o),
(347,59,o),
(153,59,c)
);
}
);
width = 616;
}
);
unicode = 68;
},
{
glyphname = E;
kernLeft = "0";
kernRight = E_T;
lastChange = "2026-02-08 07:56:59 +0000";
layers = (
{
layerId = m01;
shapes = (
{
closed = 1;
nodes = (
(181,281,l),
(417,281,l),
(417,435,l),
(181,435,l)
);
},
{
closed = 1;
nodes = (
(81,539,l),
(497,539,l),
(477,701,l),
(81,701,l)
);
},
{
closed = 1;
nodes = (
(487,1,l),
(507,163,l),
(81,163,l),
(81,1,l)
);
},
{
closed = 1;
nodes = (
(80,0,l),
(254,0,l),
(254,700,l),
(80,700,l)
);
}
);
width = 541;
},
{
layerId = m002;
shapes = (
{
closed = 1;
nodes = (
(137,328,l),
(363,328,l),
(363,388,l),
(137,388,l)
);
},
{
closed = 1;
nodes = (
(107,641,l),
(433,641,l),
(423,701,l),
(107,701,l)
);
},
{
closed = 1;
nodes = (
(433,1,l),
(443,61,l),
(107,61,l),
(107,1,l)
);
},
{
closed = 1;
nodes = (
(93,0,l),
(153,0,l),
(153,700,l),
(93,700,l)
);
}
);
width = 463;
}
);
unicode = 69;
},
{
glyphname = F;
kernLeft = "0";
kernRight = FA;
lastChange = "2026-02-08 07:51:13 +0000";
layers = (
{
layerId = m01;
shapes = (
{
closed = 1;
nodes = (
(81,539,l),
(479,539,l),
(499,701,l),
(81,701,l)
);
},
{
closed = 1;
nodes = (
(80,0,l),
(254,0,l),
(254,700,l),
(80,700,l)
);
},
{
closed = 1;
nodes = (
(181,281,l),
(419,281,l),
(419,435,l),
(181,435,l)
);
}
);
width = 507;
},
{
layerId = m002;
shapes = (
{
closed = 1;
nodes = (
(107,641,l),
(487,641,l),
(497,701,l),
(107,701,l)
);
},
{
closed = 1;
nodes = (
(93,0,l),
(153,0,l),
(153,700,l),
(93,700,l)
);
},
{
closed = 1;
nodes = (
(137,338,l),
(363,338,l),
(363,398,l),
(137,398,l)
);
}
);
width = 497;
}
);
metricLeft = F;
metricRight = F;
unicode = 70;
},
{
glyphname = G;
kernLeft = "0";
kernRight = "0";
lastChange = "2026-02-08 07:51:18 +0000";
layers = (
{
layerId = m01;
shapes = (
{
closed = 1;
nodes = (
(331,287,l),
(617,287,l),
(617,449,l),
(351,449,l)
);
},
{
closed = 1;
nodes = (
(475,-12,o),
(559,20,o),
(628,73,c),
(576,350,l),
(576,297,o),
(554,249,o),
(519,215,cs),
(485,182,o),
(439,162,o),
(388,162,cs),
(284,162,o),
(200,246,o),
(200,350,cs),
(200,454,o),
(284,538,o),
(388,538,cs),
(433,538,o),
(473,523,o),
(506,497,c),
(551,673,l),
(502,698,o),
(447,712,o),
(388,712,cs),
(188,712,o),
(26,550,o),
(26,350,cs),
(26,150,o),
(188,-12,o),
(388,-12,cs)
);
},
{
closed = 1;
nodes = (
(454,1,l),
(628,73,l),
(628,449,l),
(454,449,l)
);
}
);
width = 675;
},
{
layerId = m002;
shapes = (
{
closed = 1;
nodes = (
(314,338,l),
(580,338,l),
(580,398,l),
(324,398,l)
);
},
{
closed = 1;
nodes = (
(487,-12,o),
(546,18,o),
(584,63,c),
(584,269,l),
(584,216,o),
(575,178,o),
(568,143,cs),
(557,91,o),
(495,48,o),
(401,48,cs),
(234,48,o),
(99,183,o),
(99,350,cs),
(99,517,o),
(234,652,o),
(401,652,cs),
(473,652,o),
(518,629,o),
(540,619,c),
(564,673,l),
(515,698,o),
(460,712,o),
(401,712,cs),
(201,712,o),
(39,550,o),
(39,350,cs),
(39,150,o),
(201,-12,o),
(401,-12,cs)
);
},
{
closed = 1;
nodes = (
(524,21,l),
(584,62,l),
(584,398,l),
(524,398,l)
);
}
);
width = 647;
}
);
metricLeft = G;
metricRight = G;
unicode = 71;
},
{
glyphname = H;
kernLeft = "0";
kernRight = "0";
lastChange = "2026-02-08 07:56:59 +0000";
layers = (
{
layerId = m01;
shapes = (
{
closed = 1;
nodes = (
(80,0,l),
(254,0,l),
(254,700,l),
(80,700,l)
);
},
{
closed = 1;
nodes = (
(420,0,l),
(594,0,l),
(594,700,l),
(420,700,l)
);
},
{
closed = 1;
nodes = (
(218,291,l),
(444,291,l),
(444,445,l),
(218,445,l)
);
}
);
width = 674;
},
{
layerId = m002;
shapes = (
{
closed = 1;
nodes = (
(93,0,l),
(157,0,l),
(157,700,l),
(93,700,l)
);
},
{
closed = 1;
nodes = (
(433,0,l),
(497,0,l),
(497,700,l),
(433,700,l)
);
},
{
closed = 1;
nodes = (
(145,338,l),
(447,338,l),
(447,398,l),
(145,398,l)
);
}
);
width = 590;
}
);
unicode = 72;
},
{
glyphname = I;
kernLeft = "0";
kernRight = "0";
lastChange = "2026-02-08 07:56:58 +0000";
layers = (
{
layerId = m01;
shapes = (
{
closed = 1;
nodes = (
(80,0,l),
(254,0,l),
(254,700,l),
(80,700,l)
);
}
);
width = 334;
},
{
layerId = m002;
shapes = (
{
closed = 1;
nodes = (
(93,0,l),
(153,0,l),
(153,700,l),
(93,700,l)
);
}
);
width = 246;
}
);
unicode = 73;
},
{
glyphname = J;
kernLeft = "0";
kernRight = "0";
lastChange = "2026-02-08 07:56:59 +0000";
layers = (
{
layerId = m01;
shapes = (
{
closed = 1;
nodes = (
(180,-15,o),
(303,90,o),
(303,285,cs),
(303,700,l),
(129,700,l),
(129,266,ls),
(129,201,o),
(100,166,o),
(7,166,c),
(7,-15,l)
);
}
);
width = 364;
},
{
layerId = m002;
shapes = (
{
closed = 1;
nodes = (
(144,-15,o),
(206,82,o),
(206,213,cs),
(206,700,l),
(146,700,l),
(146,192,ls),
(146,112,o),
(96,45,o),
(2,45,c),
(2,-15,l)
);
}
);
width = 289;
}
);
unicode = 74;
},
{
glyphname = K;
kernLeft = "0";
kernRight = "0";
lastChange = "2026-02-08 07:56:58 +0000";
layers = (
{
layerId = m01;
shapes = (
{
closed = 1;
nodes = (
(80,0,l),
(254,0,l),
(254,700,l),
(80,700,l)
);
},
{
closed = 1;
nodes = (
(217,360,l),
(391,360,l),
(611,700,l),
(404,700,l)
);
},
{
closed = 1;
nodes = (
(607,0,l),
(391,360,l),
(217,360,l),
(404,0,l)
);
}
);
width = 609;
},
{
layerId = m002;
shapes = (
{
closed = 1;
nodes = (
(93,0,l),
(153,0,l),
(153,700,l),
(93,700,l)
);
},
{
closed = 1;
nodes = (
(141,366,l),
(216,366,l),
(497,700,l),
(417,700,l)
);
},
{
closed = 1;
nodes = (
(496,0,l),
(216,366,l),
(141,366,l),
(417,0,l)
);
}
);
width = 503;
}
);
unicode = 75;
},
{
glyphname = L;
kernLeft = "0";
kernRight = "0";
lastChange = "2026-02-08 07:56:59 +0000";
layers = (
{
layerId = m01;
shapes = (
{
closed = 1;
nodes = (
(80,0,l),
(254,0,l),
(254,700,l),
(80,700,l)
);
},
{
closed = 1;
nodes = (
(484,1,l),
(504,163,l),
(88,163,l),
(88,1,l)
);
}
);
width = 507;
},
{
layerId = m002;
shapes = (
{
closed = 1;
nodes = (
(93,0,l),
(153,0,l),
(153,700,l),
(93,700,l)
);
},
{
closed = 1;
nodes = (
(480,1,l),
(490,61,l),
(95,61,l),
(95,1,l)
);
}
);
width = 492;
}
);
unicode = 76;
},
{
glyphname = N;
kernLeft = "0";
kernRight = Napos;
lastChange = "2026-02-08 07:56:59 +0000";
layers = (
{
layerId = m01;
shapes = (
{
closed = 1;
nodes = (
(80,0,l),
(254,0,l),
(254,387,l),
(214,382,l),
(540,-40,l),
(375,0,l),
(594,0,l),
(594,700,l),
(420,700,l),
(420,313,l),
(460,318,l),
(134,740,l),
(299,700,l),
(80,700,l)
);
}
);
width = 674;
},
{
layerId = m002;
shapes = (
{
closed = 1;
nodes = (
(93,0,l),
(153,0,l),
(153,580,l),
(139,549,l),
(494,-40,l),
(331,0,l),
(493,0,l),
(493,700,l),
(433,700,l),
(433,120,l),
(447,151,l),
(92,740,l),
(255,700,l),
(93,700,l)
);
}
);
width = 586;
}
);
unicode = 78;
},
{
glyphname = O;
kernLeft = "0";
kernRight = "0";
lastChange = "2026-02-08 07:56:59 +0000";
layers = (
{
layerId = m01;
shapes = (
{
closed = 1;
nodes = (
(554,-12,o),
(706,150,o),
(706,350,cs),
(706,550,o),
(554,712,o),
(367,712,cs),
(179,712,o),
(27,550,o),
(27,350,cs),
(27,150,o),
(179,-12,o),
(367,-12,cs)
);
},
{
closed = 1;
nodes = (
(275,162,o),
(201,246,o),
(201,350,cs),
(201,454,o),
(275,538,o),
(367,538,cs),
(458,538,o),
(532,454,o),
(532,350,cs),
(532,246,o),
(458,162,o),
(367,162,cs)
);
}
);
width = 733;
},
{
layerId = m002;
shapes = (
{
closed = 1;
nodes = (
(539,-2,o),
(683,156,o),
(683,350,cs),
(683,544,o),
(539,702,o),
(362,702,cs),
(185,702,o),
(41,544,o),
(41,350,cs),
(41,156,o),
(185,-2,o),
(362,-2,cs)
);
},
{
closed = 1;
nodes = (
(218,58,o),
(101,189,o),
(101,350,cs),
(101,511,o),
(218,642,o),
(362,642,cs),
(506,642,o),
(623,511,o),
(623,350,cs),
(623,189,o),
(506,58,o),
(362,58,cs)
);
}
);
width = 724;
}
);
unicode = 79;
},
{
glyphname = P;
kernLeft = "0";
kernRight = PA;
lastChange = "2026-02-08 07:56:58 +0000";
layers = (
{
layerId = m01;
shapes = (
{
closed = 1;
nodes = (
(322,184,ls),
(448,184,o),
(550,300,o),
(550,443,cs),
(550,585,o),
(448,701,o),
(322,701,c),
(119,700,l),
(119,184,l)
);
},
{
closed = 1;
nodes = (
(254,0,l),
(254,700,l),
(80,700,l),
(80,0,l)
);
},
{
closed = 1;
nodes = (
(256,527,l),
(300,527,l),
(342,527,o),
(376,489,o),
(376,443,cs),
(376,396,o),
(342,358,o),
(300,358,c),
(256,358,l)
);
}
);
width = 570;
},
{
layerId = m002;
shapes = (
{
closed = 1;
nodes = (
(273,234,ls),
(399,234,o),
(501,325,o),
(501,468,cs),
(501,610,o),
(399,701,o),
(273,701,c),
(94,700,l),
(94,234,l)
);
},
{
closed = 1;
nodes = (
(153,0,l),
(153,700,l),
(93,700,l),
(93,0,l)
);
},
{
closed = 1;
nodes = (
(150,641,l),
(255,641,l),
(391,641,o),
(440,558,o),
(440,468,cs),
(440,377,o),
(391,294,o),
(255,294,c),
(150,294,l)
);
}
);
width = 531;
}
);
unicode = 80;
},
{
glyphname = Q;
kernLeft = "0";
kernRight = "0";
lastChange = "2026-02-08 07:56:59 +0000";
layers = (
{
layerId = m01;
shapes = (
{
pos = (-1,0);
ref = O;
},
{
closed = 1;
nodes = (
(258,341,l),
(481,-18,l),
(686,-18,l),
(463,340,l)
);
}
);
width = 740;
},
{
layerId = m002;
shapes = (
{
ref = O;
},
{
closed = 1;
nodes = (
(353,356,l),
(576,-3,l),
(641,-3,l),
(418,355,l)
);
}
);
width = 729;
}
);
unicode = 81;
},
{
glyphname = R;
kernLeft = "0";
kernRight = "0";
lastChange = "2026-02-08 07:56:58 +0000";
layers = (
{
layerId = m01;
shapes = (
{
closed = 1;
nodes = (
(356,263,l),
(477,263,o),
(575,361,o),
(575,482,cs),
(575,603,o),
(477,701,o),
(356,701,c),
(117,700,l),
(117,263,l)
);
},
{
closed = 1;
nodes = (
(254,0,l),
(254,700,l),
(80,700,l),
(80,0,l)
);
},
{
closed = 1;
nodes = (
(253,547,l),
(302,547,ls),
(349,547,o),
(386,510,o),
(386,463,c),
(386,416,o),
(349,379,o),
(302,379,c),
(253,379,l)
);
},
{
closed = 1;
nodes = (
(603,0,l),
(433,330,l),
(245,330,l),
(407,0,l)
);
}
);
width = 620;
},
{
layerId = m002;
shapes = (
{
closed = 1;
nodes = (
(272,263,l),
(393,263,o),
(491,361,o),
(491,482,c),
(491,603,o),
(393,701,o),
(272,701,c),
(113,700,l),
(113,263,l)
);
},
{
closed = 1;
nodes = (
(153,0,l),
(153,700,l),
(93,700,l),
(93,0,l)
);
},
{
closed = 1;
nodes = (
(153,640,l),
(272,640,ls),
(361,640,o),
(431,571,o),
(431,482,c),
(431,392,o),
(361,323,o),
(272,323,c),
(153,323,l)
);
},
{
closed = 1;
nodes = (
(494,0,l),
(331,321,l),
(269,321,l),
(424,0,l)
);
}
);
width = 538;
}
);
unicode = 82;
},
{
glyphname = S;
kernLeft = "0";
kernRight = "0";
lastChange = "2026-02-07 08:06:22 +0000";
layers = (
{
layerId = m01;
shapes = (
{
closed = 1;
nodes = (
(431,20,o),
(516,172,o),
(432,309,cs),
(385,387,o),
(299,416,o),
(222,464,cs),
(202,477,o),
(187,496,o),
(197,517,cs),
(230,594,o),
(370,540,o),
(412,489,c),
(433,657,l),
(376,708,o),
(295,716,o),
(218,707,cs),
(59,689,o),
(-19,537,o),
(66,401,cs),
(109,334,o),
(184,303,o),
(251,261,cs),
(282,242,o),
(314,214,o),
(295,183,cs),
(251,114,o),
(132,154,o),
(89,217,c),
(67,36,l),
(124,-10,o),
(200,-15,o),
(272,-4,cs)
);
}
);
width = 497;
},
{
layerId = m002;
shapes = (
{
closed = 1;
nodes = (
(322,-29,o),
(472,124,o),
(373,263,cs),
(340,309,o),
(285,348,o),
(214,383,cs),
(178,401,o),
(147,425,o),
(128,451,cs),
(40,574,o),
(191,738,o),
(373,592,c),
(394,647,l),
(359,678,o),
(307,702,o),
(259,707,cs),
(113,722,o),
(-1,583,o),
(53,456,cs),
(75,404,o),
(114,369,o),
(212,316,cs),
(285,276,o),
(308,254,o),
(326,227,cs),
(399,118,o),
(228,-27,o),
(70,114,c),
(48,56,l),
(87,25,o),
(132,3,o),
(173,-4,cs)
);
}
);
width = 441;
}
);
unicode = 83;
},
{
glyphname = T;
kernLeft = E;
kernRight = TT;
lastChange = "2026-02-08 07:56:58 +0000";
layers = (
{
layerId = m01;
shapes = (
{
closed = 1;
nodes = (
(159,0,l),
(333,0,l),
(333,700,l),
(159,700,l)
);
},
{
closed = 1;
nodes = (
(5,539,l),
(477,539,l),
(477,701,l),
(5,701,l)
);
}
);
width = 482;
},
{
layerId = m002;
shapes = (
{
closed = 1;
nodes = (
(173,0,l),
(233,0,l),
(233,700,l),
(173,700,l)
);
},
{
closed = 1;
nodes = (
(2,641,l),
(404,641,l),
(404,701,l),
(2,701,l)
);
}
);
width = 406;
}
);
unicode = 84;
},
{
glyphname = U;
kernLeft = "0";
kernRight = "0";
lastChange = "2026-02-08 07:56:58 +0000";
layers = (
{
layerId = m01;
shapes = (
{
closed = 1;
nodes = (
(62,285,ls),
(62,90,o),
(185,-15,o),
(319,-15,cs),
(319,-15,ls),
(453,-15,o),
(576,90,o),
(576,285,cs),
(576,700,l),
(402,700,l),
(402,266,ls),
(402,130,o),
(236,130,o),
(236,266,cs),
(236,700,l),
(62,700,l)
);
}
);
width = 638;
},
{
layerId = m002;
shapes = (
{
closed = 1;
nodes = (
(81,214,ls),
(81,90,o),
(163,-12,o),
(281,-12,cs),
(281,-12,ls),
(399,-12,o),
(481,90,o),
(481,214,cs),
(481,700,l),
(421,700,l),
(421,217,ls),
(421,-8,o),
(141,-8,o),
(141,217,cs),
(141,700,l),
(81,700,l)
);
}
);
width = 562;
}
);
unicode = 85;
},
{
color = 0;
glyphname = W;
kernLeft = "0";
kernRight = "0";
lastChange = "2026-02-08 07:56:59 +0000";
layers = (
{
layerId = m01;
shapes = (
{
closed = 1;
nodes = (
(131,0,l),
(355,0,l),
(441,491,l),
(395,491,l),
(480,0,l),
(707,0,l),
(807,700,l),
(632,700,l),
(587,274,l),
(495,700,l),
(341,700,l),
(251,278,l),
(206,700,l),
(31,700,l)
);
}
);
width = 837;
},
{
layerId = m002;
shapes = (
{
closed = 1;
nodes = (
(139,0,l),
(183,0,l),
(400,571,l),
(374,571,l),
(591,0,l),
(635,0,l),
(725,700,l),
(660,700,l),
(598,154,l),
(402,640,l),
(368,640,l),
(174,154,l),
(114,700,l),
(49,700,l)
);
}
);
width = 773;
}
);
unicode = 87;
},
{
glyphname = X;
kernLeft = "0";
kernRight = "0";
lastChange = "2026-02-08 07:56:59 +0000";
layers = (
{
layerId = m01;
shapes = (
{
closed = 1;
nodes = (
(219,308,l),
(219,389,l),
(7,0,l),
(205,0,l),
(293,210,l),
(254,209,l),
(344,0,l),
(542,0,l),
(329,388,l),
(330,307,l),
(542,700,l),
(344,700,l),
(253,487,l),
(293,487,l),
(202,700,l),
(3,700,l)
);
}
);
width = 545;
},
{
layerId = m002;
shapes = (
{
closed = 1;
nodes = (
(195,308,l),
(195,389,l),
(27,0,l),
(88,0,l),
(246,349,l),
(207,349,l),
(357,0,l),
(415,0,l),
(256,388,l),
(257,307,l),
(415,700,l),
(357,700,l),
(206,347,l),
(246,347,l),
(85,700,l),
(23,700,l)
);
}
);
width = 441;
}
);
unicode = 88;
},
{
glyphname = Y;
kernLeft = "0";
kernRight = YA;
lastChange = "2026-02-08 07:56:58 +0000";
layers = (
{
layerId = m01;
shapes = (
{
closed = 1;
nodes = (
(206,268,l),
(317,267,l),
(529,700,l),
(331,700,l),
(240,447,l),
(280,447,l),
(189,700,l),
(-10,700,l)
);
},
{
closed = 1;
nodes = (
(173,0,l),
(347,0,l),
(347,410,l),
(173,410,l)
);
}
);
width = 518;
},
{
layerId = m002;
shapes = (
{
closed = 1;
nodes = (
(187,338,l),
(245,337,l),
(427,700,l),
(363,700,l),
(195,369,l),
(235,369,l),
(67,700,l),
(2,700,l)
);
},
{
closed = 1;
nodes = (
(185,0,l),
(245,0,l),
(245,390,l),
(185,390,l)
);
}
);
width = 429;
}
);
unicode = 89;
},
{
glyphname = Z;
kernLeft = "0";
kernRight = "0";
lastChange = "2026-02-08 07:56:59 +0000";
layers = (
{
layerId = m01;
shapes = (
{
closed = 1;
nodes = (
(26,538,l),
(319,538,l),
(303,573,l),
(27,52,l),
(26,0,l),
(520,0,l),
(540,162,l),
(246,162,l),
(262,127,l),
(540,648,l),
(540,700,l),
(46,700,l)
);
}
);
width = 566;
},
{
layerId = m002;
shapes = (
{
closed = 1;
nodes = (
(19,640,l),
(357,640,l),
(343,653,l),
(21,0,l),
(19,0,l),
(428,0,l),
(438,60,l),
(96,60,l),
(112,47,l),
(433,700,l),
(433,700,l),
(29,700,l)
);
}
);
width = 456;
}
);
unicode = 90;
},
{
glyphname = S.ss03;
kernLeft = "0";
kernRight = "0";
lastChange = "2026-02-08 07:56:59 +0000";
layers = (
{
layerId = m01;
shapes = (
{
closed = 1;
nodes = (
(268,-1,o),
(359,91,o),
(359,193,cs),
(359,266,o),
(313,357,o),
(242,453,cs),
(180,536,o),
(291,577,o),
(364,540,c),
(364,700,l),
(334,708,o),
(302,711,o),
(271,709,cs),
(133,700,o),
(42,605,o),
(49,486,cs),
(55,386,o),
(120,340,o),
(171,254,cs),
(217,177,o),
(129,141,o),
(42,160,c),
(42,0,l),
(76,-9,o),
(111,-11,o),
(146,-9,cs)
);
}
);
width = 408;
},
{
layerId = m002;
shapes = (
{
closed = 1;
nodes = (
(251,-1,o),
(326,84,o),
(308,193,cs),
(285,313,o),
(173,371,o),
(119,481,cs),
(56,608,o),
(172,674,o),
(309,637,c),
(309,700,l),
(282,708,o),
(253,710,o),
(225,709,cs),
(92,704,o),
(4,611,o),
(50,486,cs),
(93,368,o),
(210,313,o),
(246,193,cs),
(281,75,o),
(163,21,o),
(47,63,c),
(47,0,l),
(78,-9,o),
(109,-11,o),
(141,-9,cs)
);
}
);
width = 352;
}
);
},
{
glyphname = a;
kernLeft = "0";
kernRight = "0";
lastChange = "2026-02-08 05:03:45 +0000";
layers = (
{
layerId = m01;
shapes = (
{
closed = 1;
nodes = (
(228,-4,o),
(281,6,o),
(298,74,c),
(297,53,o),
(297,13,o),
(297,0,c),
(469,0,l),
(470,134,o),
(469,119,o),
(470,253,c),
(470,392,o),
(416,532,o),
(259,549,cs),
(212,554,o),
(133,547,o),
(59,519,c),
(90,373,l),
(130,400,o),
(208,406,o),
(242,400,cs),
(268,395,o),
(305,373,o),
(304,338,cs),
(304,332,o),
(306,334,o),
(306,324,c),
(282,348,o),
(239,360,o),
(202,360,cs),
(106,360,o),
(34,274,o),
(34,172,cs),
(34,69,o),
(91,-4,o),
(188,-4,cs)
);
},
{
closed = 1;
nodes = (
(233,129,o),
(204,142,o),
(204,182,cs),
(204,221,o),
(233,234,o),
(259,234,cs),
(284,234,o),
(313,219,o),
(313,182,c),
(313,144,o),
(284,129,o),
(259,129,cs)
);
}
);
width = 513;
},
{
layerId = m002;
shapes = (
{
closed = 1;
nodes = (
(338,-4,o),
(394,23,o),
(432,69,c),
(428,62,o),
(422,45,o),
(422,0,c),
(482,0,l),
(483,164,o),
(482,156,o),
(483,320,c),
(483,436,o),
(407,526,o),
(293,546,cs),
(244,555,o),
(167,539,o),
(100,506,c),
(130,453,l),
(194,489,o),
(276,496,o),
(334,471,cs),
(372,454,o),
(404,421,o),
(413,388,cs),
(423,356,o),
(420,338,o),
(419,318,c),
(398,368,o),
(338,396,o),
(277,396,cs),
(147,396,o),
(47,313,o),
(47,195,cs),
(47,78,o),
(147,-4,o),
(277,-4,cs)
);
},
{
closed = 1;
nodes = (
(174,57,o),
(107,117,o),
(107,195,cs),
(107,275,o),
(174,336,o),
(265,336,cs),
(354,336,o),
(422,275,o),
(422,195,c),
(422,117,o),
(354,57,o),
(265,57,cs)
);
}
);
width = 536;
}
);
metricLeft = o;
metricRight = h;
unicode = 97;
},
{
glyphname = c;
kernLeft = "0";
kernRight = "0";
lastChange = "2026-02-08 05:03:45 +0000";
layers = (
{
layerId = m01;
shapes = (
{
closed = 1;
nodes = (
(34,109,o),
(151,-8,o),
(316,-8,cs),
(351,-8,o),
(404,-3,o),
(448,32,c),
(408,197,l),
(380,176,o),
(340,172,o),
(316,172,cs),
(250,172,o),
(208,212,o),
(208,269,cs),
(208,326,o),
(250,365,o),
(316,365,cs),
(341,365,o),
(381,362,o),
(408,341,c),
(448,506,l),
(403,540,o),
(351,545,o),
(316,545,cs),
(151,545,o),
(34,429,o),
(34,269,cs)
);
}
);
width = 491;
},
{
layerId = m002;
shapes = (
{
closed = 1;
nodes = (
(50,107,o),
(168,-6,o),
(330,0,cs),
(377,1,o),
(423,14,o),
(462,40,c),
(462,112,l),
(419,70,o),
(361,58,o),
(301,61,cs),
(186,66,o),
(108,155,o),
(108,270,cs),
(108,386,o),
(185,473,o),
(301,480,cs),
(361,484,o),
(419,470,o),
(462,427,c),
(463,497,l),
(421,527,o),
(372,541,o),
(321,541,cs),
(163,541,o),
(44,427,o),
(47,269,cs)
);
}
);
width = 516;
}
);
metricLeft = o;
metricRight = h;
unicode = 99;
},
{
glyphname = d;
kernLeft = "0";
kernRight = "0";
lastChange = "2026-02-08 07:56:58 +0000";
layers = (
{
layerId = m01;
shapes = (
{
closed = 1;
nodes = (
(405,539,l),
(579,539,l),
(580,699,l),
(405,699,l)
);
},
{
pos = (-14,0);
ref = a.ss01;
}
);
width = 648;
},
{
layerId = m002;
shapes = (
{
closed = 1;
nodes = (
(453,521,l),
(512,521,l),
(513,699,l),
(454,699,l)
);
},
{
pos = (-14,0);
ref = a.ss01;
}
);
width = 605;
}
);
unicode = 100;
},
{
glyphname = e;
kernLeft = "0";
kernRight = "0";
lastChange = "2026-02-08 07:56:58 +0000";
layers = (
{
layerId = m01;
shapes = (
{
closed = 1;
nodes = (
(387,-9,o),
(468,17,o),
(531,49,c),
(487,195,l),
(442,163,o),
(368,142,o),
(311,148,cs),
(257,154,o),
(217,183,o),
(194,220,c),
(552,220,l),
(557,270,ls),
(569,389,o),
(485,547,o),
(310,547,cs),
(161,547,o),
(33,430,o),
(33,270,cs),
(33,110,o),
(150,-3,o),
(310,-7,cs)
);
},
{
closed = 1;
nodes = (
(227,342,l),
(236,381,o),
(267,400,o),
(301,400,c),
(335,400,o),
(366,381,o),
(375,342,c)
);
}
);
width = 599;
},
{
layerId = m002;
shapes = (
{
closed = 1;
nodes = (
(395,0,o),
(461,26,o),
(534,82,c),
(497,129,l),
(451,88,o),
(378,60,o),
(317,60,cs),
(207,60,o),
(114,141,o),
(110,240,c),
(536,240,l),
(540,270,ls),
(557,399,o),
(436,537,o),
(304,537,cs),
(157,537,o),
(47,422,o),
(47,270,cs),
(47,117,o),
(167,0,o),
(324,0,cs)
);
},
{
closed = 1;
nodes = (
(109,300,l),
(131,414,o),
(199,477,o),
(300,477,cs),
(396,477,o),
(467,408,o),
(483,300,c)
);
}
);
width = 593;
}
);
unicode = 101;
},
{
glyphname = f;
kernLeft = "0";
kernRight = "0";
lastChange = "2026-02-08 05:01:35 +0000";
layers = (
{
layerId = m01;
shapes = (
{
closed = 1;
nodes = (
(191,784,o),
(102,715,o),
(95,557,c),
(92,452,o),
(90,163,o),
(90,0,c),
(262,0,l),
(265,542,ls),
(265,595,o),
(289,609,o),
(327,613,cs),
(346,615,o),
(363,613,o),
(382,613,c),
(362,787,l),
(339,787,l)
);
},
{
closed = 1;
nodes = (
(27,379,l),
(353,379,l),
(373,541,l),
(27,541,l)
);
}
);
width = 406;
},
{
layerId = m002;
shapes = (
{
closed = 1;
nodes = (
(154,744,o),
(103,670,o),
(103,569,c),
(100,464,o),
(99,163,o),
(99,0,c),
(159,0,l),
(163,532,ls),
(163,555,o),
(155,687,o),
(260,687,cs),
(269,687,o),
(276,687,o),
(295,687,c),
(285,747,l),
(252,747,l)
);
},
{
closed = 1;
nodes = (
(30,479,l),
(273,479,l),
(274,539,l),
(30,539,l)
);
}
);
width = 312;
}
);
unicode = 102;
},
{
glyphname = g;
kernLeft = "0";
kernRight = "0";
lastChange = "2026-02-08 07:56:59 +0000";
layers = (
{
layerId = m01;
shapes = (
{
closed = 1;
nodes = (
(127,557,o),
(25,432,o),
(25,271,cs),
(25,110,o),
(139,16,o),
(262,16,cs),
(338,16,o),
(391,57,o),
(421,139,c),
(419,97,o),
(421,-7,o),
(328,-31,cs),
(251,-51,o),
(177,-32,o),
(119,-12,c),
(100,-176,l),
(212,-205,o),
(334,-236,o),
(466,-127,cs),
(626,5,o),
(580,184,o),
(579,316,c),
(578,539,l),
(391,539,l),
(391,438,l),
(374,500,o),
(322,538,o),
(262,544,cs)
);
},
{
closed = 1;
nodes = (
(362,386,o),
(405,339,o),
(405,277,c),
(405,214,o),
(362,167,o),
(302,167,cs),
(241,167,o),
(200,214,o),
(200,277,cs),
(200,339,o),
(241,386,o),
(302,386,cs)
);
}
);
width = 640;
},
{
layerId = m002;
shapes = (
{
closed = 1;
nodes = (
(136,544,o),
(42,422,o),
(42,271,cs),
(42,123,o),
(129,-3,o),
(277,-3,cs),
(355,-3,o),
(422,29,o),
(455,99,c),
(450,-3,o),
(426,-89,o),
(330,-124,cs),
(253,-152,o),
(177,-125,o),
(109,-78,c),
(88,-136,l),
(171,-187,o),
(260,-216,o),
(351,-181,cs),
(551,-104,o),
(519,101,o),
(517,316,c),
(516,539,l),
(456,539,l),
(456,438,l),
(433,510,o),
(362,541,o),
(287,542,cs)
);
},
{
closed = 1;
nodes = (
(393,484,o),
(464,391,o),
(464,277,c),
(464,158,o),
(398,55,o),
(279,55,cs),
(162,55,o),
(102,160,o),
(102,277,cs),
(102,390,o),
(166,484,o),
(279,484,cs)
);
}
);
width = 594;
}
);
unicode = 103;
},
{
glyphname = h;
kernLeft = "0";
kernRight = "0";
lastChange = "2026-02-08 05:01:35 +0000";
layers = (
{
layerId = m01;
shapes = (
{
closed = 1;
nodes = (
(255,271,ls),
(255,334,o),
(283,381,o),
(343,381,cs),
(404,381,o),
(430,334,o),
(430,271,cs),
(430,0,l),
(605,0,l),
(605,269,ls),
(605,430,o),
(531,544,o),
(404,544,cs),
(332,544,o),
(258,484,o),
(246,426,c),
(255,502,o),
(266,512,o),
(266,699,c),
(79,699,l),
(82,0,l),
(257,0,l)
);
}
);
width = 648;
},
{
layerId = m002;
shapes = (
{
closed = 1;
nodes = (
(154,292,ls),
(153,402,o),
(221,485,o),
(324,485,cs),
(427,485,o),
(488,407,o),
(488,292,cs),
(488,0,l),
(547,0,l),
(547,282,ls),
(547,431,o),
(439,545,o),
(323,545,cs),
(231,545,o),
(153,480,o),
(133,412,c),
(149,489,o),
(153,537,o),
(153,699,c),
(92,699,l),
(95,0,l),
(157,0,l)
);
}
);
width = 600;
}
);
unicode = 104;
},
{
glyphname = i;
kernLeft = "0";
kernRight = "0";
lastChange = "2026-02-08 04:58:36 +0000";
layers = (
{
layerId = m01;
shapes = (
{
pos = (-5,603);
ref = period;
scale = (1.1291,1.1291);
},
{
closed = 1;
nodes = (
(76,0,l),
(250,0,l),
(250,540,l),
(76,540,l)
);
}
);
width = 327;
},
{
layerId = m002;
shapes = (
{
pos = (-17,635);
ref = period;
scale = (1.1291,1.1291);
},
{
closed = 1;
nodes = (
(89,0,l),
(149,0,l),
(149,540,l),
(89,540,l)
);
}
);
width = 242;
}
);
unicode = 105;
},
{
glyphname = j;
kernLeft = "0";
kernRight = "0";
lastChange = "2026-02-08 04:58:36 +0000";
layers = (
{
layerId = m01;
shapes = (
{
pos = (39,603);
ref = period;
scale = (1.1291,1.1291);
},
{
closed = 1;
nodes = (
(172,-183,o),
(295,-78,o),
(295,117,cs),
(295,540,l),
(121,540,l),
(121,98,ls),
(121,33,o),
(92,-2,o),
(-1,-2,c),
(-1,-183,l)
);
}
);
width = 358;
},
{
layerId = m002;
shapes = (
{
pos = (32,637);
ref = period;
scale = (1.1291,1.1291);
},
{
closed = 1;
nodes = (
(88,-183,o),
(201,-137,o),
(201,20,cs),
(201,540,l),
(141,540,l),
(141,13,ls),
(141,-99,o),
(61,-121,o),
(-1,-121,c),
(-1,-183,l)
);
}
);
width = 286;
}
);
unicode = 106;
},
{
glyphname = k;
kernLeft = "0";
kernRight = "0";
lastChange = "2026-02-08 07:56:58 +0000";
layers = (
{
layerId = m01;
shapes = (
{
closed = 1;
nodes = (
(80,0,l),
(254,0,l),
(254,700,l),
(224,700,o),
(109,700,o),
(80,700,c)
);
},
{
closed = 1;
nodes = (
(200,260,l),
(411,260,l),
(602,540,l),
(572,540,o),
(420,540,o),
(391,540,c)
);
},
{
closed = 1;
nodes = (
(428,0,o),
(571,0,o),
(601,0,c),
(431,290,l),
(229,290,l),
(399,0,l)
);
}
);
width = 609;
},
{
layerId = m002;
shapes = (
{
closed = 1;
nodes = (
(93,0,l),
(153,0,l),
(153,700,l),
(143,700,o),
(103,700,o),
(93,700,c)
);
},
{
closed = 1;
nodes = (
(95,260,l),
(146,226,l),
(443,540,l),
(413,540,o),
(256,540,o),
(360,540,c)
);
},
{
closed = 1;
nodes = (
(453,0,o),
(468,0,o),
(498,0,c),
(254,339,l),
(180,339,l),
(424,0,l)
);
}
);
width = 500;
}
);
unicode = 107;
},
{
glyphname = l;
kernLeft = "0";
kernRight = "0";
lastChange = "2026-02-08 07:56:59 +0000";
layers = (
{
layerId = m01;
shapes = (
{
closed = 1;
nodes = (
(80,0,l),
(254,0,l),
(254,700,l),
(224,700,o),
(109,700,o),
(80,700,c)
);
}
);
width = 334;
},
{
layerId = m002;
shapes = (
{
closed = 1;
nodes = (
(93,0,l),
(153,0,l),
(153,700,l),
(143,700,o),
(103,700,o),
(93,700,c)
);
}
);
width = 246;
}
);
unicode = 108;
},
{
glyphname = m;
kernLeft = "0";
kernRight = "0";
lastChange = "2026-02-08 07:56:59 +0000";
layers = (
{
layerId = m01;
shapes = (
{
closed = 1;
nodes = (
(255,271,ls),
(255,334,o),
(298,381,o),
(358,381,cs),
(416,381,o),
(456,338,o),
(460,281,c),
(462,0,l),
(635,0,l),
(635,271,ls),
(623,334,o),
(678,381,o),
(738,381,cs),
(799,381,o),
(840,334,o),
(840,271,cs),
(840,0,l),
(1015,0,l),
(1015,269,ls),
(1015,430,o),
(905,544,o),
(778,544,cs),
(731,544,o),
(649,528,o),
(588,439,c),
(544,510,o),
(474,553,o),
(398,544,cs),
(341,537,o),
(290,500,o),
(266,431,c),
(266,467,o),
(266,504,o),
(266,540,c),
(79,540,l),
(82,0,l),
(257,0,l)
);
}
);
width = 1073;
},
{
layerId = m002;
shapes = (
{
closed = 1;
nodes = (
(153,269,ls),
(152,391,o),
(217,484,o),
(335,484,cs),
(439,484,o),
(500,410,o),
(513,295,c),
(516,0,l),
(576,0,l),
(575,296,l),
(575,404,o),
(647,484,o),
(756,484,cs),
(873,484,o),
(937,388,o),
(937,249,cs),
(937,0,l),
(998,0,l),
(998,249,ls),
(998,427,o),
(910,544,o),
(747,544,cs),
(665,544,o),
(571,477,o),
(546,408,c),
(507,494,o),
(433,544,o),
(326,544,cs),
(241,544,o),
(153,481,o),
(133,411,c),
(136,427,o),
(152,484,o),
(152,540,c),
(92,540,l),
(95,0,l),
(155,0,l)
);
}
);
width = 1070;
}
);
unicode = 109;
},
{
glyphname = n;
kernLeft = "0";
kernRight = "0";
lastChange = "2026-02-08 07:56:58 +0000";
layers = (
{
layerId = m01;
shapes = (
{
closed = 1;
nodes = (
(255,271,ls),
(255,334,o),
(283,381,o),
(343,381,cs),
(404,381,o),
(430,334,o),
(430,271,cs),
(430,0,l),
(605,0,l),
(605,269,ls),
(605,430,o),
(521,558,o),
(398,544,cs),
(351,539,o),
(285,511,o),
(256,430,c),
(266,466,o),
(266,504,o),
(266,540,c),
(79,540,l),
(82,0,l),
(257,0,l)
);
},
{
closed = 0;
nodes = (
(79,540,l)
);
}
);
width = 667;
},
{
layerId = m002;
shapes = (
{
closed = 1;
nodes = (
(153,269,ls),
(152,391,o),
(212,484,o),
(320,484,cs),
(437,484,o),
(486,388,o),
(486,249,cs),
(486,0,l),
(547,0,l),
(547,249,ls),
(547,427,o),
(459,544,o),
(326,544,cs),
(241,544,o),
(153,481,o),
(133,411,c),
(136,427,o),
(152,484,o),
(152,540,c),
(92,540,l),
(95,0,l),
(155,0,l)
);
},
{
closed = 0;
nodes = (
(92,540,l)
);
}
);
width = 620;
}
);
unicode = 110;
},
{
glyphname = o;
kernLeft = "0";
kernRight = "0";
lastChange = "2026-02-07 07:58:50 +0000";
layers = (
{
layerId = m01;
shapes = (
{
closed = 1;
nodes = (
(438,-4,o),
(555,120,o),
(555,273,cs),
(555,425,o),
(438,549,o),
(295,549,cs),
(151,549,o),
(34,425,o),
(34,273,cs),
(34,120,o),
(151,-4,o),
(295,-4,cs)
);
},
{
closed = 1;
nodes = (
(246,170,o),
(208,215,o),
(208,273,cs),
(208,330,o),
(246,375,o),
(295,375,cs),
(343,375,o),
(381,330,o),
(381,273,cs),
(381,215,o),
(343,170,o),
(295,170,cs)
);
}
);
width = 589;
},
{
layerId = m002;
shapes = (
{
closed = 1;
nodes = (
(448,-1,o),
(564,120,o),
(564,270,cs),
(564,419,o),
(448,540,o),
(306,540,cs),
(163,540,o),
(47,419,o),
(47,270,cs),
(47,120,o),
(163,-1,o),
(306,-1,cs)
);
},
{
closed = 1;
nodes = (
(194,59,o),
(107,152,o),
(107,271,cs),
(107,387,o),
(194,480,o),
(307,480,c),
(417,480,o),
(504,387,o),
(504,271,cs),
(504,152,o),
(417,59,o),
(307,59,cs)
);
}
);
width = 611;
}
);
unicode = 111;
},
{
glyphname = r;
kernLeft = "0";
kernRight = "0";
lastChange = "2026-02-08 07:56:59 +0000";
layers = (
{
layerId = m01;
shapes = (
{
closed = 1;
nodes = (
(255,268,ls),
(255,331,o),
(298,372,o),
(345,379,cs),
(377,384,o),
(408,374,o),
(436,361,c),
(462,535,l),
(448,541,o),
(421,548,o),
(387,545,cs),
(311,538,o),
(268,484,o),
(256,427,c),
(256,540,l),
(79,540,l),
(82,0,l),
(257,0,l)
);
}
);
width = 472;
},
{
layerId = m002;
shapes = (
{
closed = 1;
nodes = (
(155,286,ls),
(154,392,o),
(215,453,o),
(271,475,cs),
(313,490,o),
(353,487,o),
(389,464,c),
(398,535,l),
(381,541,o),
(349,548,o),
(309,545,cs),
(218,538,o),
(167,484,o),
(153,427,c),
(153,540,l),
(92,540,l),
(95,0,l),
(157,0,l)
);
}
);
width = 407;
}
);
unicode = 114;
},
{
glyphname = s;
kernLeft = "0";
kernRight = "0";
lastChange = "2026-02-08 07:56:59 +0000";
layers = (
{
layerId = m01;
shapes = (
{
closed = 1;
nodes = (
(204,401,o),
(230,401,cs),
(251,401,o),
(276,386,o),
(289,365,c),
(390,463,l),
(356,515,o),
(292,547,o),
(224,547,cs),
(122,547,o),
(35,467,o),
(37,375,cs),
(39,304,o),
(94,250,o),
(195,215,cs),
(252,196,o),
(238,135,o),
(195,146,cs),
(173,152,o),
(148,169,o),
(136,184,c),
(35,74,l),
(86,19,o),
(150,-9,o),
(216,-6,cs),
(322,-1,o),
(401,76,o),
(391,179,cs),
(384,240,o),
(333,291,o),
(224,346,cs),
(172,372,o)
);
}
);
width = 428;
},
{
layerId = m002;
shapes = (
{
closed = 1;
nodes = (
(89,466,o),
(199,485,cs),
(257,495,o),
(301,478,o),
(350,428,c),
(389,463,l),
(355,515,o),
(291,547,o),
(223,547,cs),
(119,547,o),
(39,462,o),
(61,375,cs),
(77,315,o),
(131,270,o),
(204,255,cs),
(354,225,o),
(366,90,o),
(234,57,cs),
(180,43,o),
(99,75,o),
(81,116,c),
(34,74,l),
(91,13,o),
(146,-11,o),
(215,-6,cs),
(331,3,o),
(401,82,o),
(380,179,cs),
(366,247,o),
(308,293,o),
(208,316,cs),
(96,341,o)
);
}
);
width = 435;
}
);
unicode = 115;
},
{
glyphname = t;
kernLeft = "0";
kernRight = "0";
lastChange = "2026-02-07 08:06:22 +0000";
layers = (
{
layerId = m01;
shapes = (
{
closed = 1;
nodes = (
(372,-7,l),
(382,167,l),
(363,167,o),
(346,165,o),
(327,167,cs),
(289,171,o),
(265,185,o),
(265,238,cs),
(262,701,l),
(90,701,l),
(90,538,o),
(92,328,o),
(95,223,c),
(102,65,o),
(191,-4,o),
(339,-7,c)
);
},
{
closed = 1;
nodes = (
(373,379,l),
(383,541,l),
(27,541,l),
(27,379,l)
);
}
);
width = 426;
},
{
layerId = m002;
shapes = (
{
closed = 1;
nodes = (
(289,-5,l),
(299,55,l),
(280,55,o),
(273,55,o),
(264,55,cs),
(159,55,o),
(167,187,o),
(167,210,cs),
(163,702,l),
(103,702,l),
(103,539,o),
(104,278,o),
(107,173,c),
(107,72,o),
(158,-2,o),
(256,-5,c)
);
},
{
closed = 1;
nodes = (
(288,478,l),
(287,538,l),
(24,538,l),
(24,478,l)
);
}
);
width = 322;
}
);
unicode = 116;
},
{
glyphname = v;
kernLeft = "0";
kernRight = "0";
lastChange = "2026-02-08 07:56:59 +0000";
layers = (
{
layerId = m01;
shapes = (
{
closed = 1;
nodes = (
(195,0,l),
(369,0,l),
(560,540,l),
(531,540,o),
(416,540,o),
(386,540,c),
(282,206,l),
(178,540,l),
(148,540,o),
(33,540,o),
(4,540,c)
);
}
);
width = 563;
},
{
layerId = m002;
shapes = (
{
closed = 1;
nodes = (
(208,0,l),
(282,0,l),
(473,540,l),
(444,540,o),
(439,540,o),
(409,540,c),
(245,78,l),
(81,540,l),
(51,540,o),
(46,540,o),
(17,540,c)
);
}
);
width = 489;
}
);
unicode = 118;
},
{
glyphname = w;
kernLeft = "0";
kernRight = "0";
lastChange = "2026-02-08 07:56:59 +0000";
layers = (
{
layerId = m01;
shapes = (
{
closed = 1;
nodes = (
(178,0,l),
(312,0,l),
(416,274,l),
(520,0,l),
(654,0,l),
(825,540,l),
(796,540,o),
(681,540,o),
(651,540,c),
(587,266,l),
(483,540,l),
(454,540,o),
(379,540,o),
(349,540,c),
(245,266,l),
(181,540,l),
(151,540,o),
(36,540,o),
(7,540,c)
);
}
);
width = 831;
},
{
layerId = m002;
shapes = (
{
closed = 1;
nodes = (
(208,0,l),
(282,0,l),
(421,450,l),
(560,0,l),
(634,0,l),
(825,540,l),
(796,540,o),
(791,540,o),
(761,540,c),
(597,78,l),
(453,540,l),
(424,540,o),
(419,540,o),
(389,540,c),
(245,78,l),
(81,540,l),
(51,540,o),
(46,540,o),
(17,540,c)
);
}
);
width = 841;
}
);
unicode = 119;
},
{
glyphname = x;
kernLeft = "0";
kernRight = "0";
lastChange = "2026-02-08 07:56:59 +0000";
layers = (
{
layerId = m01;
shapes = (
{
closed = 1;
nodes = (
(185,270,l),
(4,0,l),
(218,0,l),
(282,137,l),
(346,0,l),
(560,0,l),
(379,270,l),
(550,540,l),
(521,540,o),
(379,540,o),
(349,540,c),
(282,403,l),
(217,540,l),
(187,540,o),
(33,540,o),
(4,540,c)
);
}
);
width = 564;
},
{
layerId = m002;
shapes = (
{
closed = 1;
nodes = (
(198,270,l),
(17,0,l),
(90,0,l),
(224,211,l),
(360,0,l),
(432,0,l),
(251,270,l),
(422,540,l),
(393,540,o),
(241,540,o),
(352,540,c),
(224,330,l),
(90,540,l),
(60,540,o),
(46,540,o),
(17,540,c)
);
}
);
width = 449;
}
);
unicode = 120;
},
{
color = 1;
glyphname = y;
kernLeft = "0";
kernRight = "0";
lastChange = "2026-02-08 07:56:59 +0000";
layers = (
{
layerId = m01;
shapes = (
{
closed = 1;
nodes = (
(59,271,ls),
(59,110,o),
(165,16,o),
(279,16,cs),
(350,16,o),
(399,57,o),
(427,139,c),
(425,97,o),
(423,5,o),
(333,-26,cs),
(246,-56,o),
(163,-27,o),
(98,4,c),
(76,-174,l),
(205,-226,o),
(360,-249,o),
(492,-117,cs),
(628,19,o),
(586,184,o),
(585,316,cs),
(584,540,l),
(412,540,l),
(412,277,ls),
(412,214,o),
(374,167,o),
(322,167,cs),
(269,167,o),
(233,214,o),
(233,277,cs),
(234,540,l),
(59,540,l)
);
},
{
closed = 1;
nodes = (
(412,540,l),
(234,540,l)
);
}
);
width = 645;
},
{
layerId = m002;
shapes = (
{
closed = 1;
nodes = (
(62,271,ls),
(62,128,o),
(151,16,o),
(294,16,cs),
(374,16,o),
(437,63,o),
(463,139,c),
(463,40,o),
(446,-57,o),
(360,-107,cs),
(276,-156,o),
(178,-141,o),
(104,-77,c),
(82,-134,l),
(180,-200,o),
(298,-220,o),
(396,-154,cs),
(549,-52,o),
(509,132,o),
(508,316,cs),
(507,540,l),
(448,540,l),
(448,277,ls),
(448,169,o),
(402,76,o),
(294,76,cs),
(183,76,o),
(122,166,o),
(122,277,cs),
(123,540,l),
(62,540,l)
);
},
{
closed = 1;
nodes = (
(448,540,l),
(123,540,l)
);
}
);
width = 587;
}
);
unicode = 121;
},
{
glyphname = z;
kernLeft = "0";
kernRight = "0";
lastChange = "2026-02-08 07:56:58 +0000";
layers = (
{
layerId = m01;
shapes = (
{
closed = 1;
nodes = (
(44,56,l),
(44,0,l),
(218,0,l),
(545,484,l),
(545,540,l),
(371,540,l)
);
},
{
closed = 1;
nodes = (
(45,540,l),
(45,366,l),
(427,366,l),
(545,540,l)
);
},
{
closed = 1;
nodes = (
(164,174,l),
(45,0,l),
(545,0,l),
(545,30,o),
(545,145,o),
(545,174,c)
);
}
);
width = 589;
},
{
layerId = m002;
shapes = (
{
closed = 1;
nodes = (
(30,26,l),
(30,0,l),
(84,0,l),
(411,514,l),
(411,540,l),
(357,540,l)
);
},
{
closed = 1;
nodes = (
(31,540,l),
(31,480,l),
(373,480,l),
(411,540,l)
);
},
{
closed = 1;
nodes = (
(70,60,l),
(31,0,l),
(411,0,l),
(411,11,o),
(411,50,o),
(411,60,c)
);
}
);
width = 441;
}
);
unicode = 122;
},
{
glyphname = a.001;
kernLeft = "0";
kernRight = "0";
lastChange = "2026-02-08 07:56:58 +0000";
layers = (
{
layerId = m01;
shapes = (
{
closed = 1;
nodes = (
(339,-4,o),
(390,40,o),
(403,102,c),
(403,68,o),
(403,34,o),
(403,0,c),
(577,1,l),
(580,539,l),
(406,539,l),
(406,508,o),
(406,477,o),
(406,446,c),
(393,500,o),
(339,544,o),
(274,544,cs),
(147,544,o),
(37,430,o),
(37,269,cs),
(37,108,o),
(147,-4,o),
(274,-4,cs)
);
},
{
closed = 1;
nodes = (
(253,162,o),
(212,209,o),
(212,271,cs),
(212,334,o),
(253,381,o),
(314,381,cs),
(374,381,o),
(417,334,o),
(417,271,c),
(417,209,o),
(374,162,o),
(314,162,cs)
);
}
);
width = 659;
},
{
layerId = m002;
shapes = (
{
closed = 1;
nodes = (
(372,-4,o),
(435,24,o),
(474,82,c),
(463,56,o),
(464,28,o),
(464,0,c),
(524,0,l),
(527,530,l),
(467,530,l),
(467,504,o),
(464,477,o),
(476,454,c),
(434,510,o),
(373,544,o),
(303,544,cs),
(149,544,o),
(50,423,o),
(50,269,cs),
(50,115,o),
(149,-4,o),
(303,-4,cs)
);
},
{
closed = 1;
nodes = (
(179,57,o),
(110,153,o),
(110,269,cs),
(110,385,o),
(179,483,o),
(295,483,cs),
(409,483,o),
(470,383,o),
(470,269,c),
(470,156,o),
(408,57,o),
(295,57,cs)
);
}
);
width = 618;
}
);
},
{
glyphname = a.ss01;
kernLeft = "0";
kernRight = "0";
lastChange = "2026-02-08 07:56:58 +0000";
layers = (
{
layerId = m01;
shapes = (
{
closed = 1;
nodes = (
(339,-4,o),
(390,40,o),
(403,102,c),
(403,68,o),
(403,34,o),
(403,0,c),
(577,1,l),
(580,539,l),
(406,539,l),
(406,477,o),
(412,453,o),
(418,422,c),
(407,463,o),
(339,544,o),
(274,544,cs),
(147,544,o),
(37,430,o),
(37,269,cs),
(37,108,o),
(147,-4,o),
(274,-4,cs)
);
},
{
closed = 1;
nodes = (
(253,162,o),
(212,209,o),
(212,271,cs),
(212,334,o),
(253,381,o),
(314,381,cs),
(374,381,o),
(417,334,o),
(417,271,c),
(417,209,o),
(374,162,o),
(314,162,cs)
);
}
);
width = 659;
},
{
layerId = m002;
shapes = (
{
closed = 1;
nodes = (
(372,-4,o),
(435,24,o),
(474,82,c),
(463,56,o),
(464,28,o),
(464,0,c),
(524,0,l),
(527,530,l),
(467,530,l),
(467,504,o),
(464,477,o),
(476,454,c),
(434,510,o),
(373,544,o),
(303,544,cs),
(149,544,o),
(50,423,o),
(50,269,cs),
(50,115,o),
(149,-4,o),
(303,-4,cs)
);
},
{
closed = 1;
nodes = (
(179,57,o),
(110,153,o),
(110,269,cs),
(110,385,o),
(179,483,o),
(295,483,cs),
(409,483,o),
(470,383,o),
(470,269,c),
(470,156,o),
(408,57,o),
(295,57,cs)
);
}
);
width = 618;
}
);
},
{
color = 0;
glyphname = y.ss02;
kernLeft = "0";
kernRight = "0";
lastChange = "2026-02-08 07:56:59 +0000";
layers = (
{
layerId = m01;
shapes = (
{
closed = 1;
nodes = (
(193,-10,ls),
(187,-22,o),
(176,-52,o),
(154,-46,cs),
(102,-33,l),
(52,-182,l),
(87,-192,o),
(116,-209,o),
(167,-209,cs),
(259,-209,o),
(319,-158,o),
(350,-71,cs),
(566,540,l),
(537,540,o),
(492,540,o),
(462,540,c)
);
},
{
alignment = -1;
ref = v;
}
);
width = 561;
},
{
layerId = m002;
shapes = (
{
closed = 1;
nodes = (
(220,0,ls),
(216,-12,o),
(193,-120,o),
(163,-116,c),
(106,-90,l),
(82,-148,l),
(117,-164,o),
(121,-175,o),
(172,-175,cs),
(248,-175,o),
(281,-19,o),
(312,68,cs),
(483,540,l),
(454,540,o),
(449,540,o),
(419,540,c)
);
},
{
alignment = -1;
pos = (-5,0);
ref = v;
}
);
width = 491;
}
);
},
{
glyphname = f_f.liga;
lastChange = "2026-02-08 04:58:43 +0000";
layers = (
{
layerId = m01;
shapes = (
{
ref = f;
},
{
alignment = -1;
pos = (371,0);
ref = f;
},
{
closed = 1;
nodes = (
(238,379,l),
(564,379,l),
(584,541,l),
(238,541,l)
);
}
);
width = 777;
},
{
layerId = m002;
shapes = (
{
ref = f;
},
{
pos = (272,0);
ref = f;
},
{
closed = 1;
nodes = (
(140,479,l),
(383,479,l),
(384,539,l),
(140,539,l)
);
}
);
width = 584;
}
);
metricLeft = f;
metricRight = f;
},
{
glyphname = f_f_i.liga;
lastChange = "2026-02-08 04:58:44 +0000";
layers = (
{
layerId = m01;
shapes = (
{
ref = f_f.liga;
},
{
alignment = -1;
pos = (742,0);
ref = i;
},
{
closed = 1;
nodes = (
(638,379,l),
(964,379,l),
(984,541,l),
(638,541,l)
);
}
);
width = 1069;
},
{
layerId = m002;
shapes = (
{
ref = f_f.liga;
},
{
pos = (574,0);
ref = i;
},
{
closed = 1;
nodes = (
(472,479,l),
(715,479,l),
(716,539,l),
(472,539,l)
);
}
);
width = 816;
}
);
metricLeft = f;
metricRight = i;
},
{
glyphname = f_i.liga;
lastChange = "2026-02-08 04:58:43 +0000";
layers = (
{
layerId = m01;
shapes = (
{
ref = f;
},
{
pos = (411,0);
ref = i;
},
{
closed = 1;
nodes = (
(309,379,l),
(635,379,l),
(655,541,l),
(309,541,l)
);
}
);
width = 738;
},
{
layerId = m002;
shapes = (
{
ref = f;
},
{
pos = (312,0);
ref = i;
},
{
closed = 1;
nodes = (
(210,479,l),
(453,479,l),
(454,539,l),
(210,539,l)
);
}
);
width = 554;
}
);
metricLeft = f;
metricRight = i;
},
{
glyphname = f_j.liga;
lastChange = "2026-02-08 04:58:44 +0000";
layers = (
{
layerId = m01;
shapes = (
{
ref = f;
},
{
pos = (381,0);
ref = j;
},
{
closed = 1;
nodes = (
(28,379,l),
(655,379,l),
(675,541,l),
(28,541,l)
);
}
);
width = 739;
},
{
layerId = m002;
shapes = (
{
ref = f;
},
{
pos = (272,0);
ref = j;
},
{
closed = 1;
nodes = (
(30,479,l),
(466,479,l),
(468,539,l),
(30,539,l)
);
}
);
width = 558;
}
);
metricLeft = f;
metricRight = j;
},
{
glyphname = f_t.liga;
lastChange = "2026-02-08 04:58:43 +0000";
layers = (
{
layerId = m01;
shapes = (
{
ref = f;
},
{
pos = (411,0);
ref = t;
},
{
closed = 1;
nodes = (
(218,379,l),
(544,379,l),
(564,541,l),
(218,541,l)
);
}
);
width = 837;
},
{
layerId = m002;
shapes = (
{
ref = f;
},
{
pos = (312,0);
ref = t;
},
{
closed = 1;
nodes = (
(140,479,l),
(383,479,l),
(384,539,l),
(140,539,l)
);
}
);
width = 634;
}
);
metricLeft = f;
metricRight = t;
},
{
glyphname = zero;
kernLeft = "0";
kernRight = "0";
lastChange = "2026-02-08 07:56:58 +0000";
layers = (
{
layerId = m01;
shapes = (
{
closed = 1;
nodes = (
(456,-12,o),
(560,137,o),
(560,350,cs),
(560,563,o),
(456,712,o),
(308,712,cs),
(160,712,o),
(56,563,o),
(56,350,cs),
(56,137,o),
(160,-12,o),
(308,-12,cs)
);
},
{
closed = 1;
nodes = (
(262,162,o),
(230,240,o),
(230,350,c),
(230,460,o),
(262,538,o),
(308,538,cs),
(354,538,o),
(387,460,o),
(387,350,cs),
(387,240,o),
(354,162,o),
(308,162,cs)
);
}
);
width = 616;
},
{
layerId = m002;
shapes = (
{
closed = 1;
nodes = (
(471,-12,o),
(575,137,o),
(575,350,cs),
(575,563,o),
(471,712,o),
(323,712,cs),
(175,712,o),
(71,563,o),
(71,350,cs),
(71,137,o),
(175,-12,o),
(323,-12,cs)
);
},
{
closed = 1;
nodes = (
(210,48,o),
(132,173,o),
(132,350,c),
(132,527,o),
(210,652,o),
(323,652,cs),
(435,652,o),
(515,527,o),
(515,350,cs),
(515,173,o),
(435,48,o),
(323,48,cs)
);
}
);
width = 646;
}
);
unicode = 48;
},
{
glyphname = one;
kernLeft = "0";
kernRight = "0";
lastChange = "2026-02-08 07:56:58 +0000";
layers = (
{
layerId = m01;
shapes = (
{
closed = 1;
nodes = (
(162,0,l),
(336,0,l),
(336,700,l),
(162,700,l)
);
},
{
closed = 1;
nodes = (
(34,409,l),
(77,409,o),
(119,428,o),
(162,469,c),
(162,700,l),
(119,637,o),
(77,603,o),
(34,600,c)
);
}
);
width = 432;
},
{
layerId = m002;
shapes = (
{
closed = 1;
nodes = (
(157,0,l),
(217,0,l),
(217,700,l),
(157,700,l)
);
},
{
closed = 1;
nodes = (
(29,541,l),
(72,541,o),
(114,560,o),
(157,601,c),
(157,700,l),
(114,637,o),
(72,603,o),
(29,600,c)
);
}
);
width = 329;
}
);
unicode = 49;
},
{
glyphname = two;
kernLeft = "0";
kernRight = "0";
lastChange = "2026-02-08 07:56:59 +0000";
layers = (
{
layerId = m01;
shapes = (
{
closed = 1;
nodes = (
(211,412,l),
(211,434,ls),
(211,498,o),
(242,539,o),
(291,539,cs),
(344,539,o),
(364,486,o),
(328,432,cs),
(16,-37,l),
(-4,0,l),
(255,0,l),
(523,0,l),
(523,174,l),
(350,174,l),
(490,386,ls),
(587,533,o),
(472,715,o),
(284,715,cs),
(109,715,o),
(37,560,o),
(37,415,cs),
(37,412,l)
);
}
);
width = 588;
},
{
layerId = m002;
shapes = (
{
closed = 1;
nodes = (
(107,452,l),
(107,474,ls),
(107,574,o),
(173,655,o),
(254,655,cs),
(366,655,o),
(421,532,o),
(354,432,cs),
(42,-37,l),
(22,0,l),
(208,0,l),
(476,0,l),
(476,60,l),
(178,60,l),
(396,386,ls),
(500,540,o),
(426,715,o),
(257,715,cs),
(126,715,o),
(47,617,o),
(47,455,cs),
(47,452,l)
);
}
);
width = 522;
}
);
unicode = 50;
},
{
glyphname = three;
kernLeft = "0";
kernRight = "0";
lastChange = "2026-02-08 07:56:59 +0000";
layers = (
{
layerId = m01;
shapes = (
{
closed = 1;
nodes = (
(205,464,l),
(209,498,o),
(226,539,o),
(275,539,cs),
(377,539,o),
(347,425,o),
(292,425,c),
(271,348,l),
(294,273,l),
(347,273,o),
(377,160,o),
(275,160,cs),
(226,160,o),
(211,201,o),
(205,235,c),
(48,196,l),
(48,123,o),
(125,-16,o),
(288,-16,cs),
(467,-16,o),
(595,198,o),
(443,350,c),
(584,498,o),
(464,700,o),
(288,715,cs),
(147,727,o),
(41,617,o),
(41,496,c)
);
},
{
closed = 1;
nodes = (
(256,274,l),
(424,274,l),
(424,425,l),
(236,425,l)
);
}
);
width = 573;
},
{
layerId = m002;
shapes = (
{
closed = 1;
nodes = (
(115,520,l),
(115,595,o),
(173,651,o),
(248,648,cs),
(452,641,o),
(437,390,o),
(179,375,c),
(178,356,l),
(181,332,l),
(443,318,o),
(454,52,o),
(248,52,cs),
(176,52,o),
(111,107,o),
(118,179,c),
(57,170,l),
(57,66,o),
(144,-8,o),
(248,-8,cs),
(487,-8,o),
(522,278,o),
(312,355,c),
(522,435,o),
(488,702,o),
(248,707,cs),
(142,709,o),
(56,634,o),
(56,528,c)
);
},
{
closed = 1;
nodes = (
(177,332,l),
(283,332,l),
(283,375,l),
(176,375,l)
);
}
);
width = 529;
}
);
unicode = 51;
},
{
glyphname = four;
kernLeft = "0";
kernRight = "0";
lastChange = "2026-02-08 07:56:58 +0000";
layers = (
{
layerId = m01;
shapes = (
{
closed = 1;
nodes = (
(344,0,l),
(518,0,l),
(518,470,l),
(344,470,l)
);
},
{
closed = 1;
nodes = (
(25,143,l),
(587,143,l),
(587,305,l),
(254,305,l),
(370,700,l),
(189,700,l)
);
}
);
width = 625;
},
{
layerId = m002;
shapes = (
{
closed = 1;
nodes = (
(289,0,l),
(349,0,l),
(349,470,l),
(289,470,l)
);
},
{
closed = 1;
nodes = (
(44,194,l),
(445,194,l),
(445,254,l),
(122,254,l),
(238,700,l),
(176,700,l)
);
}
);
width = 477;
}
);
unicode = 52;
},
{
glyphname = five;
kernLeft = "0";
kernRight = "0";
lastChange = "2026-02-08 07:56:58 +0000";
layers = (
{
layerId = m01;
shapes = (
{
closed = 1;
nodes = (
(198,323,o),
(344,299,o),
(334,220,cs),
(324,142,o),
(191,147,o),
(109,192,c),
(70,46,l),
(118,11,o),
(182,-8,o),
(256,-8,cs),
(388,-8,o),
(480,80,o),
(482,218,cs),
(483,358,o),
(392,430,o),
(254,445,c),
(255,534,l),
(452,534,l),
(472,700,l),
(88,700,l),
(93,293,l)
);
}
);
width = 540;
},
{
layerId = m002;
shapes = (
{
closed = 1;
nodes = (
(252,411,o),
(387,348,o),
(381,212,cs),
(375,82,o),
(228,30,o),
(85,77,c),
(76,17,l),
(132,1,o),
(191,-5,o),
(225,-3,cs),
(334,2,o),
(435,86,o),
(441,211,cs),
(448,362,o),
(315,449,o),
(149,425,c),
(148,640,l),
(418,640,l),
(428,700,l),
(88,700,l),
(89,356,l)
);
}
);
width = 499;
}
);
unicode = 53;
},
{
glyphname = six;
kernLeft = "0";
kernRight = "0";
lastChange = "2026-02-08 07:56:59 +0000";
layers = (
{
layerId = m01;
shapes = (
{
closed = 1;
nodes = (
(-31,183,o),
(112,14,o),
(255,-5,cs),
(419,-27,o),
(558,146,o),
(508,318,cs),
(478,419,o),
(395,486,o),
(300,475,c),
(416,700,l),
(229,700,l),
(183,597,o),
(133,521,o),
(80,411,cs)
);
},
{
closed = 1;
nodes = (
(243,155,o),
(207,195,o),
(207,239,cs),
(207,283,o),
(243,322,o),
(286,322,cs),
(327,322,o),
(365,283,o),
(365,239,cs),
(365,195,o),
(327,155,o),
(286,155,cs)
);
}
);
width = 552;
},
{
layerId = m002;
shapes = (
{
closed = 1;
nodes = (
(-6,234,o),
(64,19,o),
(244,-5,cs),
(412,-28,o),
(547,139,o),
(497,308,cs),
(462,428,o),
(321,504,o),
(214,461,c),
(352,700,l),
(282,700,l),
(213,576,o),
(175,512,o),
(109,411,cs)
);
},
{
closed = 1;
nodes = (
(189,53,o),
(110,139,o),
(110,236,cs),
(110,332,o),
(189,416,o),
(279,416,cs),
(367,416,o),
(447,330,o),
(447,236,cs),
(447,141,o),
(367,53,o),
(279,53,cs)
);
}
);
width = 556;
}
);
unicode = 54;
},
{
glyphname = seven;
kernLeft = "0";
kernRight = "0";
lastChange = "2026-02-08 07:56:59 +0000";
layers = (
{
layerId = m01;
shapes = (
{
closed = 1;
nodes = (
(464,697,l),
(22,697,l),
(42,523,l),
(236,523,l),
(90,0,l),
(270,0,l)
);
}
);
width = 483;
},
{
layerId = m002;
shapes = (
{
closed = 1;
nodes = (
(381,697,l),
(19,697,l),
(29,637,l),
(302,637,l),
(126,0,l),
(187,0,l)
);
}
);
width = 415;
}
);
unicode = 55;
},
{
glyphname = eight;
kernLeft = "0";
kernRight = "0";
lastChange = "2026-02-08 07:56:59 +0000";
layers = (
{
layerId = m01;
shapes = (
{
closed = 1;
nodes = (
(2,533,o),
(122,360,c),
(-25,192,o),
(108,-6,o),
(274,-6,cs),
(456,-6,o),
(582,192,o),
(434,360,c),
(553,537,o),
(419,702,o),
(280,705,cs),
(131,708,o)
);
},
{
closed = 1;
nodes = (
(240,151,o),
(210,183,o),
(210,217,cs),
(210,251,o),
(240,282,o),
(275,282,cs),
(309,282,o),
(340,251,o),
(340,217,cs),
(340,183,o),
(309,151,o),
(275,151,cs)
);
},
{
closed = 1;
nodes = (
(243,442,o),
(218,469,o),
(218,500,cs),
(218,532,o),
(243,557,o),
(275,557,cs),
(305,557,o),
(332,532,o),
(332,500,cs),
(332,469,o),
(305,442,o),
(275,442,cs)
);
}
);
width = 556;
},
{
layerId = m002;
shapes = (
{
closed = 1;
nodes = (
(18,470,o),
(178,370,c),
(0,271,o),
(66,-6,o),
(268,-6,cs),
(502,-6,o),
(548,277,o),
(380,370,c),
(529,472,o),
(454,702,o),
(275,705,cs),
(84,708,o)
);
},
{
closed = 1;
nodes = (
(201,54,o),
(132,121,o),
(132,197,cs),
(132,272,o),
(200,338,o),
(278,338,cs),
(355,338,o),
(425,271,o),
(425,197,cs),
(425,123,o),
(355,54,o),
(278,54,cs)
);
},
{
closed = 1;
nodes = (
(203,398,o),
(144,455,o),
(144,523,cs),
(144,591,o),
(201,645,o),
(274,645,cs),
(345,645,o),
(404,589,o),
(404,523,cs),
(404,457,o),
(343,398,o),
(274,398,c)
);
}
);
width = 553;
}
);
unicode = 56;
},
{
glyphname = period;
kernLeft = "0";
kernRight = "0";
lastChange = "2026-02-08 04:58:29 +0000";
layers = (
{
layerId = m01;
shapes = (
{
closed = 1;
nodes = (
(149,-15,ls),
(201,-15,o),
(230,13,o),
(230,66,cs),
(230,66,ls),
(230,119,o),
(201,147,o),
(149,147,cs),
(149,147,ls),
(97,147,o),
(68,119,o),
(68,66,cs),
(68,66,ls),
(68,13,o),
(97,-15,o),
(149,-15,cs)
);
}
);
width = 298;
},
{
layerId = m002;
shapes = (
{
closed = 1;
nodes = (
(128,-4,ls),
(155,-4,o),
(170,11,o),
(170,37,cs),
(170,37,ls),
(170,64,o),
(155,79,o),
(128,79,cs),
(128,79,ls),
(102,79,o),
(87,64,o),
(87,37,cs),
(87,37,ls),
(87,11,o),
(102,-4,o),
(128,-4,cs)
);
}
);
width = 257;
}
);
unicode = 46;
},
{
glyphname = comma;
kernLeft = "0";
kernRight = "0";
lastChange = "2026-02-08 04:58:29 +0000";
layers = (
{
layerId = m01;
shapes = (
{
closed = 1;
nodes = (
(63,65,cs),
(63,15,o),
(88,1,o),
(116,-10,c),
(59,-120,l),
(141,-120,l),
(208,0,ls),
(214,11,o),
(225,39,o),
(225,65,c),
(225,65,l),
(225,107,o),
(196,146,o),
(144,146,c),
(144,146,l),
(92,146,o),
(63,118,o)
);
}
);
width = 276;
},
{
layerId = m002;
shapes = (
{
closed = 1;
nodes = (
(84,39,cs),
(84,20,o),
(93,7,o),
(111,0,c),
(81,-56,l),
(124,-56,l),
(157,5,ls),
(164,15,o),
(167,27,o),
(167,39,c),
(167,39,l),
(167,63,o),
(149,80,o),
(125,80,c),
(125,80,l),
(100,80,o),
(84,64,o)
);
}
);
width = 245;
}
);
unicode = 44;
},
{
glyphname = exclam;
kernLeft = "0";
kernRight = "0";
lastChange = "2026-02-08 07:56:51 +0000";
layers = (
{
layerId = m01;
shapes = (
{
closed = 1;
nodes = (
(212,211,l),
(232,700,l),
(66,700,l),
(86,211,l)
);
},
{
ref = period;
}
);
width = 298;
},
{
layerId = m002;
shapes = (
{
closed = 1;
nodes = (
(143,131,l),
(149,700,l),
(88,700,l),
(94,131,l)
);
},
{
pos = (-2,0);
ref = period;
}
);
width = 240;
}
);
unicode = 33;
},
{
glyphname = question;
kernLeft = "0";
kernRight = "0";
lastChange = "2026-02-08 07:56:51 +0000";
layers = (
{
layerId = m01;
shapes = (
{
closed = 1;
nodes = (
(126,460,l),
(144,529,o),
(185,557,o),
(220,557,cs),
(259,558,o),
(291,523,o),
(275,473,cs),
(248,389,o),
(134,388,o),
(134,221,c),
(134,211,l),
(134,203,l),
(286,203,l),
(286,211,l),
(283,280,o),
(347,314,o),
(383,359,cs),
(504,508,o),
(400,714,o),
(211,714,c),
(211,714,l),
(88,714,o),
(23,625,o),
(-5,534,c)
);
},
{
pos = (64,0);
ref = period;
}
);
width = 447;
},
{
layerId = m002;
shapes = (
{
closed = 1;
nodes = (
(65,505,l),
(86,579,o),
(125,651,o),
(202,651,cs),
(317,651,o),
(352,520,o),
(289,424,cs),
(233,339,o),
(167,301,o),
(167,199,c),
(167,189,l),
(167,127,l),
(227,127,l),
(227,189,l),
(227,269,o),
(288,305,o),
(330,373,cs),
(423,524,o),
(375,714,o),
(198,714,c),
(198,714,l),
(90,714,o),
(27,623,o),
(12,516,c)
);
},
{
pos = (78,0);
ref = period;
}
);
width = 405;
}
);
unicode = 63;
},
{
glyphname = periodcentered;
kernLeft = "0";
kernRight = "0";
lastChange = "2026-02-08 07:56:51 +0000";
layers = (
{
layerId = m01;
shapes = (
{
closed = 1;
nodes = (
(149,175,ls),
(201,175,o),
(230,203,o),
(230,256,cs),
(230,256,ls),
(230,309,o),
(201,337,o),
(149,337,cs),
(149,337,ls),
(97,337,o),
(68,309,o),
(68,256,cs),
(68,256,ls),
(68,203,o),
(97,175,o),
(149,175,cs)
);
}
);
width = 298;
},
{
layerId = m002;
shapes = (
{
closed = 1;
nodes = (
(118,227,ls),
(137,227,o),
(147,237,o),
(147,256,cs),
(147,256,ls),
(147,275,o),
(137,285,o),
(118,285,cs),
(118,285,ls),
(99,285,o),
(89,275,o),
(89,256,cs),
(89,256,ls),
(89,237,o),
(99,227,o),
(118,227,cs)
);
}
);
width = 236;
}
);
unicode = 183;
},
{
glyphname = numbersign;
kernLeft = "0";
kernRight = "0";
lastChange = "2026-02-08 07:56:51 +0000";
layers = (
{
layerId = m01;
shapes = (
{
closed = 1;
nodes = (
(51,0,l),
(230,0,l),
(407,700,l),
(228,700,l)
);
},
{
closed = 1;
nodes = (
(308,0,l),
(487,0,l),
(664,700,l),
(485,700,l)
);
},
{
closed = 1;
nodes = (
(77,406,l),
(677,406,l),
(727,580,l),
(127,580,l)
);
},
{
closed = 1;
nodes = (
(17,160,l),
(617,160,l),
(667,334,l),
(67,334,l)
);
}
);
width = 739;
},
{
layerId = m002;
shapes = (
{
closed = 1;
nodes = (
(70,0,l),
(133,0,l),
(310,700,l),
(247,700,l)
);
},
{
closed = 1;
nodes = (
(300,0,l),
(363,0,l),
(540,700,l),
(477,700,l)
);
},
{
closed = 1;
nodes = (
(80,480,l),
(590,480,l),
(600,540,l),
(90,540,l)
);
},
{
closed = 1;
nodes = (
(20,160,l),
(530,160,l),
(540,220,l),
(30,220,l)
);
}
);
width = 618;
}
);
unicode = 35;
},
{
glyphname = slash;
kernLeft = "0";
kernRight = "0";
lastChange = "2026-02-08 07:56:51 +0000";
layers = (
{
layerId = m01;
shapes = (
{
closed = 1;
nodes = (
(-3,0,l),
(155,0,l),
(392,700,l),
(234,700,l)
);
}
);
width = 389;
},
{
layerId = m002;
shapes = (
{
closed = 1;
nodes = (
(10,0,l),
(73,0,l),
(310,700,l),
(247,700,l)
);
}
);
width = 320;
}
);
unicode = 47;
},
{
glyphname = hyphen;
kernLeft = "0";
kernRight = "0";
lastChange = "2026-02-08 07:56:51 +0000";
layers = (
{
layerId = m01;
shapes = (
{
closed = 1;
nodes = (
(80,195,l),
(386,195,l),
(386,329,l),
(80,329,l)
);
}
);
width = 466;
},
{
layerId = m002;
shapes = (
{
closed = 1;
nodes = (
(93,232,l),
(399,232,l),
(399,292,l),
(93,292,l)
);
}
);
width = 492;
}
);
unicode = 45;
},
{
glyphname = parenleft;
kernLeft = "0";
kernRight = "0";
lastChange = "2026-02-08 07:56:51 +0000";
layers = (
{
layerId = m01;
shapes = (
{
closed = 1;
nodes = (
(137,681,o),
(60,505,o),
(60,324,cs),
(60,143,o),
(137,-33,o),
(162,-91,c),
(351,-91,l),
(325,-33,o),
(234,143,o),
(234,324,cs),
(234,505,o),
(325,681,o),
(351,739,c),
(162,739,l)
);
}
);
width = 374;
},
{
layerId = m002;
shapes = (
{
closed = 1;
nodes = (
(153,681,o),
(76,505,o),
(76,324,cs),
(76,143,o),
(153,-33,o),
(178,-91,c),
(253,-91,l),
(227,-33,o),
(136,143,o),
(136,324,cs),
(136,505,o),
(227,681,o),
(253,739,c),
(178,739,l)
);
}
);
width = 291;
}
);
unicode = 40;
},
{
glyphname = braceleft;
kernLeft = "0";
kernRight = "0";
lastChange = "2026-02-08 07:56:51 +0000";
layers = (
{
layerId = m01;
shapes = (
{
closed = 1;
nodes = (
(109,486,l),
(109,373,o),
(9,361,o),
(9,328,c),
(9,294,o),
(109,281,o),
(109,167,c),
(109,8,ls),
(109,-57,o),
(144,-92,o),
(209,-92,cs),
(412,-92,l),
(412,62,l),
(283,62,l),
(283,166,l),
(281,291,o),
(179,315,o),
(183,329,c),
(195,351,o),
(287,371,o),
(283,486,c),
(283,585,l),
(412,585,l),
(412,739,l),
(209,739,ls),
(144,739,o),
(109,704,o),
(109,639,cs)
);
}
);
width = 453;
},
{
layerId = m002;
shapes = (
{
closed = 1;
nodes = (
(122,487,l),
(122,384,o),
(32,362,o),
(32,329,c),
(32,294,o),
(122,271,o),
(122,167,c),
(122,8,ls),
(122,-57,o),
(157,-92,o),
(222,-92,cs),
(425,-92,l),
(425,-32,l),
(182,-32,l),
(182,166,l),
(190,286,o),
(102,317,o),
(92,330,c),
(96,329,o),
(185,360,o),
(182,487,c),
(182,679,l),
(425,679,l),
(425,739,l),
(222,739,ls),
(157,739,o),
(122,704,o),
(122,639,cs)
);
}
);
width = 458;
}
);
unicode = 123;
},
{
glyphname = bracketleft;
kernLeft = "0";
kernRight = "0";
lastChange = "2026-02-08 07:56:51 +0000";
layers = (
{
layerId = m01;
shapes = (
{
closed = 1;
nodes = (
(96,-91,l),
(270,-91,l),
(270,739,l),
(96,739,l)
);
},
{
closed = 1;
nodes = (
(96,585,l),
(399,585,l),
(399,739,l),
(96,739,l)
);
},
{
closed = 1;
nodes = (
(96,-92,l),
(399,-92,l),
(399,62,l),
(96,62,l)
);
}
);
width = 440;
},
{
layerId = m002;
shapes = (
{
closed = 1;
nodes = (
(112,-91,l),
(172,-91,l),
(172,739,l),
(112,739,l)
);
},
{
closed = 1;
nodes = (
(112,679,l),
(301,679,l),
(301,739,l),
(112,739,l)
);
},
{
closed = 1;
nodes = (
(112,-92,l),
(301,-92,l),
(301,-32,l),
(112,-32,l)
);
}
);
width = 334;
}
);
unicode = 91;
},
{
glyphname = guilsinglleft;
kernLeft = "0";
kernRight = "0";
lastChange = "2026-02-08 07:56:51 +0000";
layers = (
{
layerId = m01;
shapes = (
{
closed = 1;
nodes = (
(391,93,l),
(168,323,l),
(168,221,l),
(391,451,l),
(279,553,l),
(10,272,l),
(279,-9,l)
);
}
);
width = 421;
},
{
layerId = m002;
shapes = (
{
closed = 1;
nodes = (
(340,32,l),
(73,311,l),
(73,233,l),
(339,511,l),
(295,553,l),
(26,272,l),
(295,-9,l)
);
}
);
width = 379;
}
);
unicode = 8249;
},
{
glyphname = quotedbl;
kernLeft = "0";
kernRight = "0";
lastChange = "2026-02-08 07:56:51 +0000";
layers = (
{
layerId = m01;
shapes = (
{
closed = 1;
nodes = (
(111,706,o),
(75,670,o),
(75,625,cs),
(75,595,o),
(101,512,o),
(133,440,c),
(187,440,l),
(215,506,o),
(237,588,o),
(237,625,c),
(237,625,l),
(237,670,o),
(201,706,o),
(156,706,c),
(156,706,l)
);
},
{
closed = 1;
nodes = (
(321,706,o),
(285,670,o),
(285,625,cs),
(285,595,o),
(311,512,o),
(343,440,c),
(397,440,l),
(425,506,o),
(447,588,o),
(447,625,c),
(447,625,l),
(447,670,o),
(411,706,o),
(366,706,c),
(366,706,l)
);
}
);
width = 525;
},
{
layerId = m002;
shapes = (
{
closed = 1;
nodes = (
(119,716,o),
(101,698,o),
(101,675,cs),
(101,660,o),
(114,618,o),
(130,582,c),
(157,582,l),
(171,615,o),
(182,656,o),
(182,675,c),
(182,675,l),
(182,698,o),
(164,716,o),
(142,716,c),
(142,716,l)
);
},
{
closed = 1;
nodes = (
(240,716,o),
(222,698,o),
(222,675,cs),
(222,660,o),
(235,618,o),
(251,582,c),
(278,582,l),
(292,615,o),
(303,656,o),
(303,675,c),
(303,675,l),
(303,698,o),
(285,716,o),
(263,716,c),
(263,716,l)
);
}
);
width = 406;
}
);
unicode = 34;
},
{
glyphname = at;
lastChange = "2026-02-08 07:56:48 +0000";
layers = (
{
layerId = m01;
shapes = (
{
closed = 1;
nodes = (
(735,-6,o),
(803,15,o),
(847,107,cs),
(866,147,o),
(877,206,o),
(877,279,cs),
(877,527,o),
(693,728,o),
(467,728,cs),
(242,728,o),
(58,527,o),
(58,279,cs),
(58,31,o),
(242,-169,o),
(467,-169,cs),
(547,-169,o),
(608,-143,o),
(677,-104,c),
(619,0,l),
(558,-36,o),
(519,-51,o),
(467,-51,cs),
(304,-51,o),
(171,98,o),
(171,279,cs),
(171,461,o),
(305,610,o),
(467,610,cs),
(630,610,o),
(764,461,o),
(764,279,cs),
(764,225,o),
(765,195,o),
(749,163,cs),
(738,141,o),
(724,126,o),
(697,128,cs),
(676,129,o),
(662,169,o),
(662,236,cs),
(662,301,o),
(651,-1059,o),
(664,490,c),
(531,490,l),
(531,441,o),
(531,437,o),
(536,426,c),
(508,475,o),
(469,502,o),
(426,502,cs),
(332,502,o),
(251,394,o),
(251,269,cs),
(251,145,o),
(332,39,o),
(426,39,cs),
(496,39,o),
(528,69,o),
(534,141,c),
(534,87,o),
(583,26,o),
(651,12,cs)
);
},
{
closed = 1;
nodes = (
(426,213,o),
(406,236,o),
(406,270,cs),
(406,303,o),
(426,327,o),
(455,327,c),
(483,327,o),
(502,304,o),
(502,270,cs),
(502,236,o),
(483,213,o),
(455,213,cs)
);
}
);
width = 934;
},
{
layerId = m002;
shapes = (
{
closed = 1;
nodes = (
(712,20,o),
(792,44,o),
(825,117,c),
(844,155,o),
(854,210,o),
(854,279,cs),
(854,512,o),
(681,702,o),
(468,702,cs),
(256,702,o),
(83,512,o),
(83,279,cs),
(83,46,o),
(256,-143,o),
(468,-143,cs),
(550,-143,o),
(628,-115,o),
(694,-63,c),
(658,-16,l),
(602,-61,o),
(537,-84,o),
(468,-84,cs),
(289,-84,o),
(143,80,o),
(143,279,cs),
(143,479,o),
(290,643,o),
(468,643,cs),
(647,643,o),
(794,479,o),
(794,279,cs),
(794,208,o),
(788,175,o),
(770,146,c),
(752,115,o),
(719,100,o),
(693,113,cs),
(676,121,o),
(663,140,o),
(663,155,cs),
(664,277,o),
(664,368,o),
(665,490,c),
(605,490,l),
(605,443,o),
(605,438,o),
(612,426,c),
(576,475,o),
(523,502,o),
(466,502,cs),
(341,502,o),
(252,405,o),
(252,269,cs),
(252,134,o),
(341,39,o),
(466,39,cs),
(528,39,o),
(580,76,o),
(610,141,c),
(602,121,o),
(621,75,o),
(643,62,cs)
);
},
{
closed = 1;
nodes = (
(373,99,o),
(311,169,o),
(311,269,cs),
(311,369,o),
(373,441,o),
(459,441,cs),
(542,441,o),
(599,371,o),
(599,269,cs),
(599,169,o),
(541,99,o),
(459,99,cs)
);
}
);
width = 935;
}
);
unicode = 64;
},
{
glyphname = euro;
kernLeft = "0";
kernRight = "0";
lastChange = "2026-02-08 07:56:48 +0000";
layers = (
{
layerId = m01;
shapes = (
{
closed = 1;
nodes = (
(70,378,l),
(668,378,l),
(668,469,l),
(70,469,l)
);
},
{
pos = (125,0);
ref = C;
},
{
closed = 1;
nodes = (
(70,238,l),
(668,238,l),
(668,329,l),
(70,329,l)
);
}
);
width = 762;
},
{
layerId = m002;
shapes = (
{
closed = 1;
nodes = (
(82,384,l),
(640,384,l),
(640,444,l),
(82,444,l)
);
},
{
pos = (117,0);
ref = C;
},
{
closed = 1;
nodes = (
(82,264,l),
(640,264,l),
(640,324,l),
(82,324,l)
);
}
);
width = 755;
}
);
unicode = 8364;
},
{
glyphname = sterling;
kernLeft = "0";
kernRight = "0";
lastChange = "2026-02-08 07:56:48 +0000";
layers = (
{
layerId = m01;
shapes = (
{
closed = 1;
nodes = (
(179,253,o),
(169,127,o),
(59,0,c),
(233,0,l),
(343,129,o),
(353,259,o),
(353,388,cs),
(353,486,o),
(406,538,o),
(503,538,cs),
(536,538,l),
(556,700,l),
(499,700,ls),
(291,700,o),
(179,588,o),
(179,380,cs)
);
},
{
closed = 1;
nodes = (
(533,0,l),
(553,162,l),
(217,162,l),
(217,0,l)
);
},
{
closed = 1;
nodes = (
(59,293,l),
(547,293,l),
(557,384,l),
(79,384,l)
);
}
);
width = 660;
},
{
layerId = m002;
shapes = (
{
closed = 1;
nodes = (
(194,253,o),
(184,127,o),
(74,0,c),
(132,0,l),
(242,129,o),
(252,259,o),
(252,388,cs),
(252,527,o),
(344,640,o),
(489,640,cs),
(512,640,l),
(522,700,l),
(514,700,ls),
(306,700,o),
(194,588,o),
(194,380,cs)
);
},
{
closed = 1;
nodes = (
(512,0,l),
(522,60,l),
(132,60,l),
(132,0,l)
);
},
{
closed = 1;
nodes = (
(84,309,l),
(512,309,l),
(522,369,l),
(94,369,l)
);
}
);
width = 618;
}
);
unicode = 163;
},
{
glyphname = yen;
kernLeft = "0";
kernRight = "0";
lastChange = "2026-02-08 07:56:19 +0000";
layers = (
{
layerId = m01;
shapes = (
{
pos = (68,0);
ref = Y;
},
{
closed = 1;
nodes = (
(115,288,l),
(541,288,l),
(541,379,l),
(115,379,l)
);
},
{
closed = 1;
nodes = (
(115,148,l),
(541,148,l),
(541,239,l),
(115,239,l)
);
}
);
width = 653;
},
{
layerId = m002;
shapes = (
{
pos = (98,0);
ref = Y;
},
{
closed = 1;
nodes = (
(102,304,l),
(498,304,l),
(498,364,l),
(102,364,l)
);
},
{
closed = 1;
nodes = (
(102,184,l),
(498,184,l),
(498,244,l),
(102,244,l)
);
}
);
width = 610;
}
);
unicode = 165;
},
{
glyphname = notequal;
kernLeft = "0";
kernRight = "0";
lastChange = "2026-02-08 07:56:45 +0000";
layers = (
{
layerId = m01;
shapes = (
{
pos = (-10,0);
ref = equal;
},
{
closed = 1;
nodes = (
(136,0,l),
(316,0,l),
(463,540,l),
(283,540,l)
);
}
);
width = 662;
},
{
layerId = m002;
shapes = (
{
pos = (-22,0);
ref = equal;
},
{
closed = 1;
nodes = (
(195,0,l),
(258,0,l),
(405,540,l),
(342,540,l)
);
}
);
width = 648;
}
);
unicode = 8800;
},
{
glyphname = asciitilde;
lastChange = "2026-02-08 07:56:45 +0000";
layers = (
{
layerId = m01;
shapes = (
{
closed = 1;
nodes = (
(108,175,l),
(146,198,o),
(189,245,o),
(253,245,cs),
(291,245,o),
(343,145,o),
(433,145,cs),
(497,145,o),
(529,182,o),
(567,215,c),
(567,349,l),
(529,316,o),
(497,279,o),
(433,279,cs),
(386,279,o),
(328,379,o),
(253,379,cs),
(189,379,o),
(146,332,o),
(108,309,c)
);
}
);
width = 674;
},
{
layerId = m002;
shapes = (
{
closed = 1;
nodes = (
(123,209,l),
(161,232,o),
(204,289,o),
(268,289,cs),
(314,289,o),
(371,189,o),
(448,189,cs),
(512,189,o),
(544,216,o),
(582,249,c),
(582,319,l),
(544,286,o),
(512,249,o),
(448,249,cs),
(401,249,o),
(343,349,o),
(268,349,cs),
(204,349,o),
(161,302,o),
(123,279,c)
);
}
);
width = 707;
}
);
unicode = 126;
},
{
glyphname = asciicircum;
lastChange = "2026-02-08 07:56:45 +0000";
layers = (
{
layerId = m01;
shapes = (
{
closed = 1;
nodes = (
(159,332,l),
(339,545,l),
(237,545,l),
(417,332,l),
(529,434,l),
(258,737,l),
(318,737,l),
(47,434,l)
);
}
);
width = 576;
},
{
layerId = m002;
shapes = (
{
closed = 1;
nodes = (
(119,460,l),
(283,644,l),
(217,645,l),
(382,460,l),
(424,502,l),
(228,721,l),
(272,721,l),
(76,502,l)
);
}
);
width = 500;
}
);
unicode = 94;
},
{
glyphname = percent;
lastChange = "2026-02-08 07:56:45 +0000";
layers = (
{
layerId = m01;
shapes = (
{
closed = 1;
nodes = (
(207,0,l),
(400,0,l),
(737,700,l),
(544,700,l)
);
},
{
closed = 1;
nodes = (
(819,-1,o),
(896,80,o),
(896,179,cs),
(896,278,o),
(819,358,o),
(725,358,cs),
(630,358,o),
(553,278,o),
(553,179,cs),
(553,80,o),
(630,-1,o),
(725,-1,cs)
);
},
{
closed = 1;
nodes = (
(706,143,o),
(691,159,o),
(691,179,cs),
(691,198,o),
(706,214,o),
(725,214,c),
(743,214,o),
(758,198,o),
(758,179,cs),
(758,159,o),
(743,143,o),
(725,143,cs)
);
},
{
closed = 1;
nodes = (
(316,346,o),
(393,427,o),
(393,526,cs),
(393,625,o),
(316,705,o),
(222,705,cs),
(127,705,o),
(50,625,o),
(50,526,cs),
(50,427,o),
(127,346,o),
(222,346,cs)
);
},
{
closed = 1;
nodes = (
(203,490,o),
(188,506,o),
(188,526,cs),
(188,545,o),
(203,561,o),
(222,561,c),
(240,561,o),
(255,545,o),
(255,526,cs),
(255,506,o),
(240,490,o),
(222,490,cs)
);
}
);
width = 946;
},
{
layerId = m002;
shapes = (
{
closed = 1;
nodes = (
(160,0,l),
(226,0,l),
(563,700,l),
(497,700,l)
);
},
{
closed = 1;
nodes = (
(603,-1,o),
(666,65,o),
(666,145,cs),
(666,226,o),
(603,291,o),
(527,291,cs),
(450,291,o),
(387,226,o),
(387,145,cs),
(387,65,o),
(450,-1,o),
(527,-1,cs)
);
},
{
closed = 1;
nodes = (
(482,61,o),
(447,98,o),
(447,146,cs),
(447,192,o),
(482,229,o),
(528,229,c),
(571,229,o),
(606,192,o),
(606,146,cs),
(606,98,o),
(571,61,o),
(528,61,cs)
);
},
{
closed = 1;
nodes = (
(279,417,o),
(341,482,o),
(341,561,cs),
(341,641,o),
(279,705,o),
(204,705,cs),
(127,705,o),
(65,641,o),
(65,561,cs),
(65,482,o),
(127,417,o),
(204,417,cs)
);
},
{
closed = 1;
nodes = (
(159,478,o),
(126,514,o),
(126,562,cs),
(126,608,o),
(159,644,o),
(204,644,c),
(247,644,o),
(281,608,o),
(281,562,cs),
(281,514,o),
(247,478,o),
(204,478,cs)
);
}
);
width = 731;
}
);
unicode = 37;
},
{
glyphname = rightArrow;
kernLeft = "0";
kernRight = "0";
lastChange = "2026-02-08 07:56:45 +0000";
layers = (
{
layerId = m01;
shapes = (
{
closed = 1;
nodes = (
(693,272,l),
(424,553,l),
(321,442,l),
(545,232,l)
);
},
{
pos = (-22,10);
ref = endash;
},
{
closed = 1;
nodes = (
(693,272,l),
(545,312,l),
(321,102,l),
(424,-9,l)
);
}
);
width = 727;
},
{
layerId = m002;
shapes = (
{
closed = 1;
nodes = (
(572,272,l),
(323,503,l),
(290,452,l),
(484,272,l)
);
},
{
pos = (-23,10);
ref = endash;
},
{
closed = 1;
nodes = (
(572,272,l),
(484,272,l),
(290,92,l),
(323,41,l)
);
}
);
width = 629;
}
);
unicode = 8594;
},
{
glyphname = AAngle;
kernLeft = "0";
kernRight = "0";
lastChange = "2026-02-07 11:18:41 +0000";
layers = (
{
layerId = m01;
shapes = (
{
closed = 1;
nodes = (
(-4,0,l),
(170,0,l),
(355,512,l),
(321,512,l),
(506,0,l),
(680,0,l),
(440,700,l),
(410,700,l),
(266,700,l),
(236,700,l)
);
}
);
width = 677;
},
{
layerId = m002;
shapes = (
{
closed = 1;
nodes = (
(8,0,l),
(72,0,l),
(291,612,l),
(257,612,l),
(477,0,l),
(541,0,l),
(291,700,l),
(286,700,l),
(267,700,l),
(262,700,l)
);
}
);
width = 550;
}
);
},
{
glyphname = Currency;
kernLeft = "0";
kernRight = "0";
lastChange = "2026-02-07 07:58:50 +0000";
layers = (
{
layerId = m01;
shapes = (
{
closed = 1;
nodes = (
(35,616,l),
(115,616,l),
(115,759,l),
(35,759,l)
);
},
{
closed = 1;
nodes = (
(35,-64,l),
(115,-64,l),
(115,79,l),
(35,79,l)
);
}
